<svg width="100" height="100" viewBox="0 0 100 100" fill="none" xmlns="http://www.w3.org/2000/svg">
<rect width="100" height="100" fill="black"/>
<path d="M36.5221 58.1213C33.0787 58.1213 29.8827 57.0882 27.7491 55.1738C26.1367 53.727 25.3622 51.7612 25.3622 49.7388C25.3622 47.7401 26.1702 45.7614 27.7491 44.3224C29.7295 42.5167 33.2285 41.3857 36.5221 41.3857C40.1669 41.3857 43.0844 42.3038 45.3147 44.3272C46.9015 45.7675 47.669 47.7375 47.669 49.7388C47.669 51.6789 46.8544 53.7449 45.3147 55.1738C43.2382 57.1008 39.9749 58.1213 36.5221 58.1213V55.9137C38.3502 55.9137 40.0453 55.2825 41.2289 54.1051C42.4051 52.935 42.9531 51.4962 42.9531 49.7388C42.9531 48.0542 42.3618 46.4802 41.2289 45.3637C40.0607 44.2125 38.3253 43.5652 36.5221 43.5652C34.7139 43.5652 32.9764 44.2063 31.8078 45.3637C30.6812 46.4795 30.0888 48.0589 30.0888 49.7388C30.0888 51.4129 30.6873 52.9903 31.8078 54.1051C32.9772 55.2688 34.7084 55.9137 36.5221 55.9137V58.1213Z" fill="white"/>
<path d="M11.3544 41.3936C9.51254 41.3936 7.41938 41.7382 5.642 42.5321C4.00113 43.2647 2.65759 44.4485 2.65759 46.4116C2.65664 48.1795 3.78041 49.2147 3.7498 49.1865C4.22794 49.6264 4.99733 50.3757 7.00873 50.8162C7.90797 51.0126 9.83003 51.3141 11.7445 51.5148C13.6439 51.715 15.5142 51.9052 16.2753 52.0983C16.8804 52.2523 17.8977 52.4622 17.8977 53.6021C17.8977 54.738 16.8268 55.0848 16.6405 55.1593C16.4544 55.2337 15.1696 55.8226 12.8606 55.8226C11.1557 55.8226 9.10626 55.3097 8.35892 55.0428C7.49809 54.7361 6.59448 54.3306 5.75189 53.3017C5.54219 53.0458 5.21178 52.3445 5.21178 51.6494H3.12147V57.5057H5.44486C5.44486 57.5057 5.44486 56.8633 5.44486 56.7141C5.44486 56.6242 5.55702 56.2533 5.94714 56.4301C6.4325 56.6506 7.85664 57.2177 9.34581 57.5287C10.5669 57.7835 11.3544 57.9666 12.8722 57.9666C15.3488 57.9666 16.6796 57.5637 17.5994 57.3008C18.4661 57.0531 19.5365 56.6072 20.4068 55.9135C20.8774 55.5386 21.9104 54.5768 21.9104 52.8316C21.9104 51.1571 21.0118 50.1173 20.6954 49.801C20.2648 49.3702 19.7382 49.0354 19.1897 48.778C18.7123 48.5534 17.9582 48.2835 17.3414 48.1323C16.1439 47.8382 13.4367 47.4759 12.1414 47.3405C10.7842 47.1985 8.4287 47.0033 7.4882 46.712C7.20284 46.6236 6.62223 46.3466 6.62223 45.6723C6.62223 45.192 6.88763 44.785 7.41311 44.4559C8.24714 43.9337 9.93174 43.6082 11.6884 43.6082C13.7644 43.601 15.523 44.0759 16.6416 44.5755C17.0224 44.7453 17.4669 44.9898 17.8207 45.2783C18.2192 45.6036 18.7802 46.2791 18.9821 47.2219H20.8585V42.1244H18.7635V42.7164C18.7635 42.9082 18.5661 43.1567 18.193 42.9508C17.2551 42.4595 14.6038 41.3981 11.3544 41.3936Z" fill="white"/>
<path d="M57.2668 42.3203L67.4867 51.5431L67.3822 45.3336C67.3713 44.5192 67.2213 44.1792 66.3409 44.1792C65.1639 44.1792 64.4191 44.1792 64.4191 44.1792V42.3218H73.158V44.1792C73.158 44.1792 72.4603 44.1792 71.2827 44.1792C70.385 44.1792 70.3286 44.4669 70.317 45.3336L70.4755 57.1994H67.4828L55.7124 46.6935L55.7143 54.149C55.725 54.96 55.7626 55.3412 56.5976 55.3412C57.7736 55.3412 58.6966 55.3412 58.6966 55.3412V57.1986H50.1145V55.3412C50.1145 55.3412 50.9443 55.3412 52.1206 55.3412C52.87 55.3412 52.8402 54.627 52.8402 54.107V45.404C52.8402 44.8424 52.7611 44.1804 51.5848 44.1804H49.9573V42.3203H57.2668Z" fill="white"/>
<path d="M83.143 55.3377C83.2247 55.3377 83.5894 55.3269 83.6599 55.3054C83.8618 55.2427 83.9989 55.0986 84.0624 54.9486C84.0892 54.8858 84.1025 54.6065 84.1025 54.5468C84.1025 54.5468 84.1036 51.7088 84.1036 51.6107C84.1036 51.5402 84.0983 51.5094 83.9789 51.3527C83.847 51.1805 78.6259 45.2636 78.3867 45.0033C78.0901 44.6794 77.5692 44.1794 76.7768 44.1794C76.147 44.1794 74.9614 44.1794 74.9614 44.1794V42.3208H85.2086V44.1767C85.2086 44.1767 84.2116 44.1767 83.9732 44.1767C83.688 44.1767 83.4983 44.4478 83.7418 44.7489C83.7418 44.7489 87.1899 48.8733 87.2226 48.917C87.255 48.9603 87.2823 48.9712 87.3259 48.9305C87.369 48.8896 90.8601 44.7872 90.8875 44.7545C91.0534 44.5558 90.9418 44.1794 90.5835 44.1794C90.3443 44.1794 89.3154 44.1794 89.3154 44.1794V42.3208H97.7147V44.1794C97.7147 44.1794 96.4681 44.1794 95.8382 44.1794C95.1572 44.1794 94.8803 44.3048 94.3683 44.8841C94.1341 45.1489 88.8572 51.1723 88.7135 51.3356C88.638 51.421 88.6451 51.5402 88.6451 51.6107C88.6451 51.724 88.6451 54.2738 88.6451 54.5457C88.6451 54.605 88.6586 54.8843 88.6852 54.947C88.7483 55.0978 88.8858 55.2415 89.0879 55.3039C89.1584 55.3257 89.5181 55.3366 89.5998 55.3366C89.9685 55.3366 91.5192 55.3366 91.5192 55.3366V57.1946H81.3244V55.3366L83.143 55.3377Z" fill="white"/>
</svg>
