<svg width="14" height="13" viewBox="0 0 14 13" fill="none" xmlns="http://www.w3.org/2000/svg">
<path d="M4.08859 0C2.29367 0 0.838593 1.45508 0.838593 3.25C0.838593 5.04495 2.29367 6.5 4.08859 6.5C2.29367 6.5 0.838593 7.95505 0.838593 9.75C0.838593 11.545 2.29367 13 4.08859 13C5.88355 13 7.33859 11.545 7.33859 9.75C7.33859 11.545 8.79364 13 10.5886 13C12.3835 13 13.8386 11.545 13.8386 9.75C13.8386 7.95505 12.3835 6.5 10.5886 6.5C12.3835 6.5 13.8386 5.04495 13.8386 3.25C13.8386 1.45508 12.3835 0 10.5886 0C8.79364 0 7.33859 1.45508 7.33859 3.25C7.33859 1.45508 5.88355 0 4.08859 0Z" fill="#0CC013"/>
<path fill-rule="evenodd" clip-rule="evenodd" d="M6.92 6.57549L11.8904 1.6131L12.9184 2.6428L6.92 8.63155L3.46643 5.18355L4.49447 4.15387L6.92 6.57549Z" fill="white" stroke="#74FF79" stroke-width="0.5"/>
</svg>
