<svg width="14" height="13" viewBox="0 0 14 13" fill="none" xmlns="http://www.w3.org/2000/svg">
<path d="M3.39307 0C1.59814 0 0.143066 1.45508 0.143066 3.25C0.143066 5.04495 1.59814 6.5 3.39307 6.5C1.59814 6.5 0.143066 7.95505 0.143066 9.75C0.143066 11.545 1.59814 13 3.39307 13C5.18802 13 6.64307 11.545 6.64307 9.75C6.64307 11.545 8.09811 13 9.89307 13C11.688 13 13.1431 11.545 13.1431 9.75C13.1431 7.95505 11.688 6.5 9.89307 6.5C11.688 6.5 13.1431 5.04495 13.1431 3.25C13.1431 1.45508 11.688 0 9.89307 0C8.09811 0 6.64307 1.45508 6.64307 3.25C6.64307 1.45508 5.18802 0 3.39307 0Z" fill="#74FF79"/>
</svg>
