<svg width="301" height="301" viewBox="0 0 301 301" fill="none" xmlns="http://www.w3.org/2000/svg">
<path d="M151.637 13.2314L150.715 13.1845L153.751 6.05664L154.658 6.10277L156.956 13.5017L156.034 13.4548L154.175 7.23024L154.118 7.22735L151.637 13.2314ZM152.121 10.4114L155.838 10.6003L155.798 11.3805L152.082 11.1917L152.121 10.4114Z" fill="black"/>
<path d="M167.111 14.4611C166.661 14.3948 166.281 14.2226 165.97 13.9447C165.66 13.6644 165.438 13.3014 165.305 12.8558C165.173 12.4079 165.149 11.8982 165.233 11.3268C165.316 10.76 165.486 10.2825 165.742 9.89432C165.998 9.50612 166.316 9.22399 166.696 9.04795C167.076 8.87191 167.494 8.8174 167.948 8.88443C168.299 8.93626 168.568 9.03576 168.755 9.18293C168.944 9.3281 169.081 9.4824 169.167 9.64585C169.256 9.8073 169.324 9.93935 169.371 10.042L169.441 10.0524L169.833 7.39648L170.662 7.5188L169.601 14.7136L168.8 14.5954L168.922 13.7663L168.824 13.7518C168.748 13.8412 168.643 13.9526 168.509 14.0859C168.374 14.2168 168.195 14.3255 167.969 14.4118C167.743 14.4959 167.457 14.5123 167.111 14.4611ZM167.333 13.733C167.666 13.782 167.96 13.7368 168.215 13.5974C168.47 13.4556 168.68 13.2389 168.845 12.9474C169.011 12.6535 169.124 12.3028 169.184 11.8953C169.243 11.4925 169.237 11.1313 169.164 10.8119C169.092 10.4902 168.953 10.2281 168.749 10.0256C168.544 9.82078 168.274 9.69348 167.936 9.64373C167.585 9.5919 167.279 9.63887 167.018 9.78466C166.76 9.92845 166.55 10.1451 166.387 10.4346C166.228 10.7222 166.12 11.0556 166.064 11.435C166.007 11.8191 166.014 12.1768 166.085 12.5079C166.159 12.837 166.298 13.1112 166.502 13.3304C166.71 13.5476 166.986 13.6818 167.333 13.733Z" fill="black"/>
<path d="M179.422 16.5731C178.944 16.4578 178.551 16.2428 178.244 15.9279C177.94 15.6136 177.736 15.2272 177.632 14.7687C177.531 14.3108 177.546 13.808 177.678 13.2602C177.811 12.7078 178.027 12.2497 178.326 11.8859C178.628 11.5227 178.986 11.2704 179.4 11.1289C179.816 10.9881 180.263 10.9753 180.742 11.0905C181.221 11.2058 181.612 11.4206 181.917 11.7349C182.223 12.0498 182.427 12.4373 182.528 12.8975C182.631 13.3583 182.617 13.8648 182.484 14.4172C182.352 14.965 182.135 15.4194 181.834 15.7803C181.535 16.1418 181.177 16.393 180.761 16.5338C180.347 16.6753 179.901 16.6883 179.422 16.5731ZM179.598 15.8412C179.962 15.9287 180.284 15.9075 180.563 15.7776C180.843 15.6477 181.076 15.4444 181.262 15.1678C181.448 14.8911 181.583 14.5755 181.669 14.2211C181.754 13.8666 181.777 13.5228 181.738 13.1895C181.699 12.8562 181.585 12.5669 181.396 12.3217C181.206 12.0764 180.93 11.91 180.566 11.8225C180.202 11.7349 179.88 11.7572 179.6 11.8894C179.32 12.0217 179.087 12.2272 178.9 12.5062C178.714 12.7852 178.578 13.1019 178.492 13.4563C178.407 13.8108 178.384 14.1535 178.424 14.4845C178.464 14.8155 178.578 15.1024 178.768 15.3454C178.958 15.5883 179.235 15.7536 179.598 15.8412Z" fill="black"/>
<path d="M189.254 18.9257L191.589 12.0381L192.383 12.3073L191.521 14.8497L191.588 14.8725C191.677 14.8026 191.796 14.7157 191.946 14.6116C192.1 14.5061 192.292 14.4315 192.525 14.3878C192.76 14.3425 193.046 14.377 193.382 14.491C193.817 14.6385 194.164 14.8772 194.422 15.2072C194.68 15.5372 194.834 15.9333 194.885 16.3955C194.936 16.8576 194.869 17.36 194.685 17.9026C194.5 18.4496 194.246 18.8923 193.924 19.2305C193.602 19.5665 193.24 19.7885 192.835 19.8965C192.432 20.0022 192.015 19.9821 191.585 19.8361C191.253 19.7236 191.006 19.5786 190.844 19.4011C190.682 19.2213 190.571 19.0426 190.512 18.8648C190.453 18.6848 190.41 18.5379 190.384 18.424L190.29 18.392L190.02 19.1857L189.254 18.9257ZM190.91 16.6074C190.777 16.9975 190.718 17.3611 190.731 17.698C190.745 18.0328 190.833 18.3215 190.996 18.5641C191.16 18.8045 191.4 18.9787 191.719 19.0867C192.051 19.1992 192.357 19.2056 192.638 19.106C192.923 19.0049 193.171 18.8242 193.385 18.5641C193.601 18.3024 193.771 17.9877 193.896 17.62C194.019 17.2568 194.074 16.9105 194.061 16.581C194.051 16.25 193.962 15.9613 193.796 15.7149C193.632 15.467 193.382 15.2861 193.046 15.172C192.723 15.0626 192.424 15.0524 192.149 15.1416C191.875 15.2285 191.632 15.3987 191.421 15.6522C191.211 15.9034 191.04 16.2218 190.91 16.6074Z" fill="black"/>
<path d="M202.848 23.9751C202.367 23.7629 201.999 23.4737 201.744 23.1076C201.493 22.7402 201.357 22.3233 201.338 21.8567C201.322 21.389 201.426 20.8996 201.652 20.3884C201.878 19.8773 202.169 19.4679 202.528 19.1602C202.889 18.8514 203.286 18.6616 203.718 18.5911C204.154 18.5193 204.597 18.5828 205.047 18.7816C205.307 18.8963 205.545 19.0529 205.76 19.2514C205.975 19.4498 206.143 19.6924 206.265 19.9791C206.388 20.2636 206.441 20.5923 206.424 20.9652C206.407 21.3381 206.296 21.7573 206.09 22.223L205.947 22.5479L202.1 20.8502L202.393 20.1875L205.46 21.541C205.584 21.2594 205.638 20.9834 205.623 20.7127C205.61 20.4431 205.529 20.1989 205.38 19.9803C205.233 19.7627 205.02 19.5927 204.743 19.4703C204.438 19.3356 204.14 19.2947 203.85 19.3479C203.563 19.3998 203.307 19.5197 203.082 19.7076C202.857 19.8954 202.683 20.1269 202.562 20.4019L202.367 20.8438C202.201 21.2206 202.125 21.5688 202.139 21.8882C202.156 22.2064 202.252 22.4853 202.426 22.725C202.6 22.9626 202.842 23.1497 203.152 23.2864C203.354 23.3753 203.548 23.4274 203.735 23.4428C203.926 23.4569 204.106 23.4329 204.276 23.3707C204.446 23.3063 204.602 23.2018 204.744 23.0572L205.393 23.5921C205.204 23.8089 204.975 23.972 204.707 24.0813C204.44 24.1885 204.147 24.2354 203.83 24.2221C203.513 24.2065 203.186 24.1242 202.848 23.9751Z" fill="black"/>
<path d="M217.059 30.6983L220.864 24.5L222.958 25.7856C223.445 26.084 223.788 26.4158 223.989 26.7808C224.193 27.145 224.279 27.5213 224.246 27.9095C224.214 28.2977 224.085 28.6745 223.861 29.0397C223.637 29.4049 223.358 29.6909 223.026 29.8979C222.695 30.1061 222.321 30.2043 221.903 30.1923C221.487 30.1784 221.038 30.0234 220.555 29.7274L219.054 28.806L219.463 28.1402L220.94 29.0467C221.273 29.2511 221.575 29.3577 221.848 29.3665C222.12 29.3753 222.362 29.3098 222.573 29.1698C222.787 29.029 222.97 28.8346 223.123 28.5864C223.275 28.3382 223.365 28.0878 223.392 27.8351C223.421 27.5837 223.368 27.3399 223.233 27.1039C223.098 26.8658 222.862 26.6433 222.525 26.4365L221.206 25.6266L217.81 31.159L217.059 30.6983Z" fill="black"/>
<path d="M230.526 35.3512L228.563 37.9805L227.891 37.4791L232.242 31.6514L232.913 32.1528L231.316 34.2926L231.373 34.3351C231.644 34.1859 231.931 34.1213 232.235 34.1415C232.543 34.1612 232.868 34.2992 233.211 34.5555C233.509 34.7779 233.725 35.0324 233.86 35.319C233.996 35.6038 234.034 35.9145 233.975 36.2513C233.919 36.5876 233.751 36.9436 233.47 37.3192L231.397 40.0965L230.725 39.5951L232.765 36.8633C233.024 36.5162 233.134 36.1805 233.096 35.8562C233.06 35.5315 232.884 35.2509 232.567 35.0143C232.347 34.85 232.115 34.7492 231.871 34.7119C231.629 34.676 231.392 34.7096 231.158 34.8129C230.926 34.9176 230.715 35.097 230.526 35.3512Z" fill="black"/>
<path d="M239.047 46.3012C238.679 45.9731 238.435 45.5978 238.314 45.1754C238.195 44.7545 238.197 44.3176 238.323 43.8645C238.45 43.4131 238.702 42.9773 239.077 42.5571C239.456 42.1334 239.863 41.8322 240.299 41.6534C240.737 41.4762 241.172 41.4233 241.603 41.4946C242.036 41.5674 242.436 41.7679 242.803 42.096C243.17 42.4241 243.414 42.7986 243.534 43.2194C243.655 43.6419 243.65 44.0797 243.521 44.5329C243.394 44.9877 243.142 45.427 242.764 45.8507C242.388 46.2708 241.981 46.5686 241.545 46.7441C241.111 46.9211 240.678 46.9731 240.245 46.9003C239.813 46.829 239.414 46.6293 239.047 46.3012ZM239.547 45.7398C239.826 45.989 240.12 46.1226 240.428 46.1405C240.736 46.1584 241.036 46.0894 241.331 45.9337C241.626 45.778 241.896 45.5642 242.139 45.2923C242.381 45.0204 242.564 44.7284 242.687 44.4164C242.81 44.1043 242.847 43.7954 242.797 43.4897C242.746 43.1841 242.58 42.9066 242.301 42.6574C242.022 42.4082 241.729 42.2755 241.42 42.2594C241.11 42.2432 240.806 42.3139 240.51 42.4714C240.214 42.6289 239.945 42.8436 239.702 43.1155C239.459 43.3874 239.277 43.6785 239.155 43.9888C239.034 44.2991 238.999 44.6062 239.051 44.9101C239.104 45.214 239.268 45.4905 239.547 45.7398Z" fill="black"/>
<path d="M251.914 50.772L251.405 51.268L249.431 49.2447L249.94 48.7487L251.914 50.772ZM251.451 48.4258L252.036 49.0257L248.315 52.6562C248.145 52.8216 248.042 52.9701 248.005 53.1019C247.972 53.2338 247.979 53.3527 248.026 53.4588C248.076 53.5649 248.145 53.662 248.231 53.7501C248.295 53.8162 248.352 53.8671 248.4 53.9028C248.449 53.9369 248.489 53.9642 248.519 53.9847L248.099 54.6324C248.044 54.6066 247.974 54.5647 247.887 54.5068C247.799 54.4504 247.701 54.3663 247.592 54.2545C247.426 54.085 247.301 53.8834 247.215 53.6497C247.131 53.4176 247.111 53.1754 247.156 52.9232C247.203 52.6726 247.34 52.4366 247.567 52.2151L251.451 48.4258Z" fill="black"/>
<path d="M252.485 59.5168C252.166 59.1416 251.975 58.7365 251.913 58.3015C251.852 57.8684 251.915 57.4359 252.101 57.0043C252.289 56.5744 252.597 56.177 253.027 55.8121C253.46 55.4441 253.904 55.2014 254.361 55.0838C254.818 54.9681 255.256 54.975 255.674 55.1046C256.093 55.236 256.462 55.4893 256.781 55.8645C257.1 56.2397 257.29 56.6439 257.351 57.0771C257.413 57.5121 257.349 57.9453 257.16 58.3767C256.972 58.8099 256.661 59.2105 256.228 59.5785C255.799 59.9434 255.356 60.1829 254.9 60.2971C254.446 60.4131 254.009 60.4054 253.59 60.274C253.172 60.1444 252.804 59.892 252.485 59.5168ZM253.058 59.0292C253.3 59.3142 253.573 59.4866 253.875 59.5464C254.178 59.6062 254.486 59.5791 254.799 59.4651C255.112 59.3511 255.408 59.176 255.686 58.9399C255.963 58.7038 256.185 58.4396 256.349 58.1472C256.514 57.8549 256.592 57.5539 256.584 57.2442C256.575 56.9345 256.45 56.6371 256.208 56.3521C255.965 56.0671 255.692 55.8955 255.388 55.8372C255.084 55.779 254.774 55.8076 254.459 55.9232C254.144 56.0387 253.847 56.2145 253.57 56.4507C253.292 56.6868 253.071 56.9502 252.908 57.241C252.745 57.5318 252.669 57.8313 252.679 58.1395C252.69 58.4476 252.816 58.7442 253.058 59.0292Z" fill="black"/>
<path d="M264.614 67.765L264.003 67.2767C264.077 67.1652 264.136 67.0374 264.178 66.8935C264.224 66.7501 264.233 66.5921 264.206 66.4195C264.178 66.247 264.094 66.0616 263.952 65.8633C263.758 65.5918 263.533 65.4103 263.279 65.3189C263.027 65.228 262.806 65.2507 262.616 65.3871C262.446 65.5083 262.357 65.6657 262.346 65.8592C262.336 66.0526 262.392 66.3037 262.514 66.6124L262.824 67.3866C263.011 67.8521 263.075 68.253 263.016 68.5894C262.959 68.9244 262.775 69.2027 262.465 69.4245C262.211 69.6064 261.932 69.6957 261.627 69.6927C261.323 69.6915 261.021 69.6023 260.719 69.4251C260.418 69.2478 260.144 68.9868 259.897 68.6422C259.573 68.1897 259.404 67.745 259.388 67.308C259.372 66.871 259.525 66.478 259.845 66.129L260.47 66.6602C260.275 66.8927 260.18 67.1373 260.183 67.394C260.188 67.6527 260.29 67.9217 260.489 68.2008C260.717 68.5185 260.965 68.7225 261.233 68.8129C261.505 68.9038 261.736 68.881 261.926 68.7446C262.08 68.6344 262.171 68.4882 262.198 68.306C262.226 68.1224 262.187 67.9004 262.079 67.6398L261.723 66.7765C261.529 66.3014 261.465 65.8962 261.531 65.5609C261.6 65.2262 261.787 64.9493 262.093 64.7303C262.344 64.5512 262.615 64.4631 262.908 64.4659C263.203 64.4706 263.493 64.556 263.777 64.722C264.063 64.8899 264.318 65.1298 264.541 65.4417C264.855 65.8807 265.005 66.2942 264.992 66.6823C264.98 67.0723 264.854 67.4332 264.614 67.765Z" fill="black"/>
<path d="M268.395 74.9245L265.578 76.606L265.148 75.8864L271.393 72.1592L271.823 72.8789L269.529 74.2475L269.566 74.3084C269.873 74.2738 270.164 74.3239 270.437 74.4585C270.714 74.5939 270.962 74.8456 271.181 75.2136C271.372 75.5327 271.475 75.8505 271.49 76.1668C271.507 76.4819 271.424 76.7838 271.24 77.0724C271.06 77.3619 270.769 77.6268 270.366 77.867L267.39 79.6432L266.961 78.9236L269.888 77.1765C270.26 76.9544 270.49 76.6862 270.578 76.3717C270.669 76.0581 270.614 75.7315 270.411 75.392C270.27 75.1562 270.094 74.9745 269.883 74.847C269.673 74.7214 269.44 74.6618 269.185 74.6681C268.931 74.6764 268.668 74.7619 268.395 74.9245Z" fill="black"/>
<path d="M272.097 88.3027C271.883 87.8592 271.801 87.4192 271.85 86.9825C271.901 86.5481 272.071 86.1455 272.36 85.7747C272.65 85.4061 273.049 85.0994 273.556 84.8546C274.068 84.6077 274.559 84.4849 275.03 84.4863C275.503 84.4898 275.925 84.6069 276.296 84.8377C276.669 85.0706 276.962 85.4088 277.176 85.8524C277.39 86.2959 277.472 86.7348 277.421 87.1693C277.371 87.6059 277.201 88.009 276.908 88.3787C276.617 88.7505 276.216 89.0598 275.704 89.3067C275.197 89.5515 274.708 89.6717 274.238 89.6671C273.769 89.6647 273.348 89.5471 272.975 89.3142C272.604 89.0834 272.311 88.7462 272.097 88.3027ZM272.775 87.9756C272.938 88.3125 273.158 88.548 273.435 88.6822C273.713 88.8163 274.018 88.8678 274.35 88.8365C274.681 88.8052 275.012 88.7103 275.34 88.5519C275.668 88.3934 275.949 88.1936 276.182 87.9523C276.415 87.711 276.567 87.4394 276.637 87.1376C276.707 86.8357 276.66 86.5164 276.498 86.1795C276.335 85.8426 276.114 85.6076 275.834 85.4744C275.555 85.3413 275.248 85.2909 274.914 85.3232C274.58 85.3556 274.249 85.4509 273.92 85.6094C273.592 85.7678 273.312 85.9671 273.081 86.2074C272.85 86.4477 272.701 86.7182 272.633 87.019C272.565 87.3198 272.612 87.6387 272.775 87.9756Z" fill="black"/>
<path d="M274.531 97.9771L281.552 95.3398L281.837 96.0978L281.025 96.4025L281.06 96.4955C281.171 96.5199 281.314 96.5572 281.489 96.6075C281.668 96.6592 281.848 96.7611 282.029 96.9131C282.213 97.0665 282.368 97.3095 282.492 97.6419C282.654 98.0718 282.689 98.4912 282.597 98.8999C282.505 99.3087 282.297 99.6791 281.971 100.012C281.646 100.344 281.215 100.611 280.679 100.812C280.138 101.015 279.635 101.099 279.169 101.064C278.705 101.029 278.304 100.889 277.964 100.644C277.627 100.399 277.378 100.064 277.218 99.6382C277.095 99.3102 277.051 99.0271 277.085 98.7891C277.122 98.5502 277.19 98.3514 277.29 98.1926C277.392 98.0329 277.478 97.9068 277.55 97.8142L277.525 97.7477L274.826 98.7617L274.531 97.9771ZM279.288 97.0701C278.903 97.2149 278.584 97.3992 278.332 97.623C278.082 97.8459 277.914 98.0972 277.83 98.3768C277.747 98.6556 277.765 98.9523 277.883 99.267C278.006 99.595 278.196 99.8363 278.451 99.9908C278.709 100.147 279.007 100.225 279.343 100.225C279.682 100.227 280.034 100.159 280.397 100.023C280.756 99.8872 281.059 99.7103 281.306 99.4913C281.555 99.2736 281.723 99.0223 281.808 98.7375C281.896 98.4539 281.878 98.146 281.753 97.8135C281.633 97.4944 281.451 97.2566 281.208 97.1002C280.967 96.943 280.681 96.863 280.352 96.8604C280.024 96.857 279.67 96.9269 279.288 97.0701Z" fill="black"/>
<path d="M282.434 114.813L289.523 113.19L290.496 117.441L289.735 117.615L288.958 114.223L286.563 114.771L287.267 117.845L286.505 118.02L285.801 114.946L282.63 115.672L282.434 114.813Z" fill="black"/>
<path d="M284.887 126.25L290.27 125.37L290.405 126.197L285.022 127.077L284.887 126.25ZM291.236 125.644C291.209 125.483 291.241 125.335 291.332 125.2C291.423 125.067 291.546 124.989 291.7 124.963C291.854 124.938 291.996 124.974 292.124 125.07C292.253 125.169 292.331 125.299 292.357 125.461C292.383 125.622 292.351 125.769 292.26 125.901C292.169 126.036 292.047 126.116 291.893 126.141C291.738 126.166 291.597 126.129 291.468 126.03C291.339 125.934 291.262 125.805 291.236 125.644Z" fill="black"/>
<path d="M283.868 133.95C283.828 133.547 283.846 133.195 283.921 132.895C283.994 132.595 284.105 132.341 284.253 132.131C284.399 131.924 284.561 131.755 284.739 131.623L285.27 132.242C285.179 132.327 285.075 132.434 284.959 132.561C284.841 132.69 284.744 132.858 284.67 133.068C284.593 133.28 284.571 133.55 284.603 133.877C284.646 134.316 284.788 134.667 285.028 134.931C285.268 135.195 285.614 135.305 286.066 135.261L287.169 135.153L287.162 135.082C287.057 135.031 286.926 134.955 286.769 134.857C286.614 134.76 286.47 134.612 286.336 134.414C286.205 134.217 286.122 133.942 286.088 133.589C286.045 133.151 286.11 132.747 286.283 132.378C286.456 132.011 286.731 131.707 287.107 131.466C287.483 131.227 287.954 131.079 288.519 131.024C289.075 130.969 289.569 131.02 290 131.175C290.434 131.329 290.781 131.57 291.042 131.897C291.305 132.223 291.458 132.615 291.503 133.072C291.538 133.425 291.507 133.711 291.409 133.93C291.314 134.151 291.198 134.324 291.061 134.45C290.926 134.577 290.814 134.676 290.726 134.747L290.734 134.831L291.596 134.747L291.675 135.553L286.091 136.101C285.625 136.146 285.235 136.078 284.922 135.894C284.607 135.713 284.364 135.452 284.192 135.109C284.019 134.77 283.91 134.383 283.868 133.95ZM286.848 133.628C286.881 133.963 286.985 134.238 287.161 134.454C287.337 134.67 287.574 134.824 287.873 134.916C288.173 135.008 288.523 135.034 288.923 134.995C289.314 134.956 289.654 134.864 289.941 134.716C290.229 134.569 290.446 134.372 290.593 134.124C290.74 133.877 290.797 133.583 290.764 133.244C290.729 132.891 290.611 132.605 290.408 132.387C290.207 132.171 289.949 132.019 289.636 131.931C289.323 131.845 288.983 131.82 288.615 131.856C288.238 131.893 287.911 131.985 287.632 132.131C287.357 132.28 287.148 132.479 287.006 132.728C286.866 132.98 286.814 133.28 286.848 133.628Z" fill="black"/>
<path d="M287.049 144.19L292.503 144.251L292.494 145.061L291.642 145.051L291.641 145.122C291.931 145.239 292.155 145.425 292.313 145.68C292.474 145.935 292.552 146.24 292.548 146.595C292.544 146.955 292.459 147.254 292.293 147.491C292.129 147.731 291.901 147.916 291.609 148.048L291.608 148.105C291.888 148.248 292.109 148.46 292.272 148.741C292.437 149.022 292.517 149.358 292.513 149.749C292.507 150.236 292.35 150.633 292.041 150.94C291.735 151.247 291.261 151.397 290.619 151.389L286.969 151.348L286.978 150.51L290.629 150.551C291.031 150.556 291.32 150.449 291.495 150.231C291.671 150.013 291.76 149.754 291.763 149.456C291.768 149.073 291.655 148.774 291.425 148.561C291.198 148.348 290.908 148.239 290.555 148.235L287.004 148.195L287.014 147.343L290.749 147.385C291.06 147.388 291.31 147.291 291.502 147.091C291.696 146.892 291.795 146.634 291.798 146.317C291.801 146.099 291.745 145.895 291.631 145.704C291.517 145.516 291.358 145.363 291.153 145.244C290.951 145.128 290.716 145.069 290.449 145.066L287.04 145.028L287.049 144.19Z" fill="black"/>
<path d="M286.269 163.228C286.309 162.884 286.41 162.58 286.573 162.316C286.737 162.051 286.952 161.851 287.218 161.716C287.487 161.58 287.798 161.533 288.15 161.575C288.461 161.611 288.705 161.701 288.884 161.846C289.064 161.991 289.198 162.173 289.285 162.39C289.371 162.608 289.427 162.843 289.452 163.096C289.48 163.352 289.495 163.608 289.498 163.863C289.502 164.197 289.503 164.468 289.5 164.675C289.499 164.885 289.52 165.04 289.563 165.14C289.606 165.243 289.695 165.302 289.829 165.318L289.857 165.321C290.205 165.362 290.486 165.298 290.701 165.13C290.916 164.965 291.046 164.69 291.091 164.307C291.138 163.91 291.087 163.588 290.939 163.342C290.792 163.096 290.625 162.915 290.438 162.801L290.813 162.044C291.125 162.223 291.36 162.441 291.515 162.698C291.673 162.957 291.772 163.231 291.813 163.519C291.855 163.81 291.86 164.092 291.828 164.365C291.808 164.539 291.763 164.736 291.694 164.957C291.628 165.18 291.518 165.391 291.367 165.587C291.215 165.786 291.002 165.942 290.729 166.053C290.457 166.164 290.105 166.194 289.675 166.144L286.105 165.726L286.203 164.893L286.936 164.979L286.941 164.937C286.83 164.867 286.716 164.758 286.597 164.61C286.478 164.463 286.385 164.275 286.316 164.045C286.248 163.815 286.232 163.543 286.269 163.228ZM287.002 163.442C286.963 163.771 286.996 164.056 287.098 164.297C287.201 164.541 287.348 164.732 287.539 164.871C287.73 165.012 287.938 165.096 288.164 165.123L288.926 165.212C288.887 165.172 288.858 165.09 288.837 164.966C288.817 164.844 288.804 164.704 288.796 164.546C288.791 164.391 288.787 164.239 288.785 164.091C288.786 163.945 288.785 163.827 288.784 163.737C288.781 163.517 288.759 163.31 288.717 163.114C288.678 162.921 288.603 162.76 288.491 162.63C288.382 162.503 288.222 162.427 288.01 162.402C287.721 162.368 287.49 162.449 287.317 162.646C287.146 162.845 287.041 163.111 287.002 163.442Z" fill="black"/>
<path d="M284.081 179.053L291.115 180.901L290.891 181.753L287.759 180.93L286.774 184.68L289.906 185.504L289.682 186.355L282.648 184.507L282.872 183.655L286.018 184.482L287.003 180.731L283.857 179.905L284.081 179.053Z" fill="black"/>
<path d="M286.351 195.327L287.082 195.602L285.162 200.707L284.43 200.432L285.236 198.291L279.16 196.005L279.47 195.181L285.546 197.467L286.351 195.327Z" fill="black"/>
<path d="M281.964 209.062L281.484 209.997L274.984 209.441L274.945 209.516L279.189 214.471L278.709 215.406L272.238 212.087L272.614 211.354L277.53 213.876L277.563 213.813L273.684 209.268L274.047 208.561L280.001 209.061L280.033 208.997L275.117 206.475L275.493 205.742L281.964 209.062Z" fill="black"/>
<path d="M267.071 221.509L273.148 225.505L272.664 226.241L267.24 222.674L265.382 225.498L264.73 225.069L267.071 221.509Z" fill="black"/>
<path d="M256.909 243.633L257.49 242.971C257.715 243.099 257.942 243.178 258.172 243.206C258.401 243.237 258.625 243.226 258.844 243.173C259.064 243.124 259.273 243.037 259.469 242.914C259.666 242.79 259.844 242.638 260.003 242.456C260.294 242.126 260.474 241.752 260.542 241.337C260.61 240.923 260.55 240.494 260.364 240.05C260.176 239.608 259.845 239.179 259.372 238.763C258.899 238.347 258.431 238.075 257.968 237.945C257.503 237.818 257.07 237.814 256.669 237.934C256.266 238.056 255.919 238.282 255.628 238.613C255.469 238.794 255.34 238.99 255.243 239.201C255.146 239.412 255.087 239.629 255.064 239.852C255.042 240.078 255.06 240.302 255.12 240.525C255.18 240.751 255.287 240.966 255.441 241.171L254.86 241.833C254.624 241.538 254.454 241.227 254.349 240.902C254.244 240.577 254.201 240.248 254.218 239.917C254.237 239.587 254.313 239.265 254.447 238.951C254.58 238.638 254.767 238.345 255.009 238.069C255.419 237.603 255.896 237.288 256.443 237.126C256.989 236.963 257.564 236.962 258.166 237.122C258.769 237.283 259.358 237.617 259.934 238.123C260.511 238.629 260.917 239.171 261.154 239.747C261.391 240.324 261.464 240.894 261.373 241.457C261.282 242.02 261.032 242.534 260.622 243C260.38 243.276 260.113 243.499 259.82 243.671C259.526 243.844 259.216 243.961 258.889 244.021C258.564 244.082 258.234 244.081 257.898 244.019C257.563 243.959 257.234 243.83 256.909 243.633Z" fill="black"/>
<path d="M248.039 253.531C248.315 253.766 248.632 253.853 248.989 253.792C249.347 253.731 249.686 253.55 250.009 253.25C250.244 253.031 250.415 252.801 250.521 252.56C250.625 252.321 250.664 252.088 250.639 251.863C250.611 251.639 250.519 251.442 250.361 251.273C250.228 251.131 250.081 251.04 249.918 251.001C249.755 250.965 249.589 250.963 249.418 250.995C249.25 251.029 249.086 251.08 248.928 251.146C248.771 251.214 248.632 251.281 248.509 251.347L247.833 251.705C247.66 251.798 247.459 251.891 247.23 251.985C246.998 252.081 246.753 252.145 246.494 252.18C246.235 252.217 245.974 252.198 245.712 252.122C245.45 252.045 245.203 251.882 244.971 251.633C244.703 251.345 244.536 251.015 244.471 250.643C244.404 250.272 244.45 249.884 244.611 249.479C244.769 249.076 245.053 248.684 245.462 248.304C245.843 247.949 246.23 247.703 246.624 247.566C247.015 247.431 247.393 247.399 247.758 247.471C248.12 247.544 248.447 247.717 248.739 247.988L248.074 248.608C247.869 248.423 247.647 248.32 247.407 248.298C247.166 248.279 246.925 248.322 246.683 248.428C246.442 248.536 246.215 248.689 246.004 248.886C245.758 249.115 245.574 249.36 245.452 249.622C245.332 249.886 245.282 250.143 245.302 250.393C245.323 250.645 245.424 250.868 245.604 251.063C245.769 251.239 245.952 251.337 246.154 251.356C246.356 251.375 246.57 251.344 246.796 251.263C247.021 251.183 247.252 251.081 247.487 250.959L248.317 250.536C248.844 250.269 249.332 250.133 249.781 250.129C250.23 250.125 250.622 250.302 250.955 250.661C251.233 250.959 251.394 251.294 251.44 251.665C251.485 252.041 251.428 252.417 251.269 252.795C251.109 253.176 250.86 253.525 250.52 253.841C250.177 254.161 249.815 254.383 249.433 254.508C249.054 254.636 248.687 254.666 248.335 254.6C247.98 254.535 247.674 254.373 247.415 254.112L248.039 253.531Z" fill="black"/>
<path d="M237.845 262.332C238.099 262.592 238.406 262.708 238.767 262.681C239.129 262.654 239.484 262.506 239.833 262.238C240.088 262.041 240.28 261.828 240.408 261.599C240.534 261.37 240.595 261.143 240.591 260.916C240.585 260.691 240.511 260.486 240.37 260.302C240.251 260.148 240.113 260.044 239.955 259.99C239.796 259.938 239.63 259.921 239.457 259.937C239.286 259.955 239.119 259.99 238.955 260.041C238.793 260.094 238.647 260.148 238.519 260.202L237.812 260.495C237.632 260.571 237.423 260.645 237.185 260.717C236.946 260.79 236.696 260.832 236.435 260.842C236.173 260.855 235.915 260.811 235.662 260.71C235.408 260.609 235.177 260.424 234.97 260.154C234.73 259.842 234.595 259.498 234.565 259.121C234.533 258.745 234.616 258.364 234.813 257.976C235.009 257.589 235.328 257.226 235.771 256.885C236.184 256.568 236.593 256.36 236.998 256.261C237.4 256.163 237.78 256.167 238.136 256.272C238.49 256.379 238.799 256.582 239.064 256.88L238.343 257.434C238.157 257.231 237.946 257.107 237.708 257.062C237.471 257.021 237.226 257.042 236.976 257.124C236.725 257.209 236.485 257.34 236.256 257.516C235.99 257.721 235.784 257.948 235.638 258.197C235.494 258.449 235.42 258.7 235.415 258.951C235.413 259.204 235.492 259.435 235.654 259.646C235.801 259.837 235.974 259.952 236.174 259.989C236.373 260.027 236.589 260.017 236.821 259.958C237.053 259.898 237.292 259.819 237.538 259.72L238.404 259.377C238.954 259.16 239.452 259.071 239.9 259.109C240.347 259.147 240.72 259.36 241.019 259.749C241.267 260.072 241.397 260.42 241.407 260.795C241.416 261.172 241.324 261.542 241.13 261.903C240.936 262.268 240.655 262.591 240.287 262.874C239.915 263.16 239.534 263.347 239.142 263.436C238.752 263.527 238.385 263.523 238.04 263.424C237.693 263.326 237.403 263.136 237.17 262.852L237.845 262.332Z" fill="black"/>
<path d="M223.522 274.341L222.759 274.78L220.166 270.274C219.935 269.872 219.812 269.488 219.798 269.121C219.784 268.755 219.869 268.422 220.054 268.122C220.239 267.821 220.514 267.566 220.88 267.356C221.224 267.157 221.567 267.044 221.908 267.014C222.25 266.987 222.565 267.046 222.854 267.191C223.142 267.336 223.379 267.57 223.564 267.892L222.813 268.324C222.711 268.146 222.577 268.015 222.412 267.933C222.246 267.853 222.064 267.822 221.865 267.837C221.667 267.853 221.468 267.918 221.269 268.033C221.05 268.159 220.889 268.313 220.789 268.494C220.688 268.675 220.649 268.877 220.672 269.102C220.693 269.33 220.779 269.574 220.929 269.835L223.522 274.341Z" fill="black"/>
<path d="M210.787 272.87C211.1 272.723 211.412 272.649 211.722 272.647C212.034 272.647 212.317 272.725 212.573 272.879C212.829 273.036 213.033 273.275 213.184 273.597C213.317 273.88 213.368 274.135 213.339 274.363C213.311 274.593 213.228 274.802 213.089 274.991C212.949 275.179 212.779 275.35 212.577 275.505C212.374 275.663 212.165 275.811 211.95 275.949C211.668 276.128 211.438 276.271 211.261 276.378C211.082 276.488 210.961 276.588 210.899 276.677C210.834 276.768 210.83 276.874 210.888 276.996L210.9 277.022C211.049 277.339 211.251 277.545 211.507 277.639C211.761 277.734 212.063 277.7 212.412 277.536C212.774 277.366 213.021 277.154 213.152 276.899C213.284 276.643 213.349 276.406 213.348 276.187L214.189 276.106C214.201 276.467 214.139 276.781 214.003 277.049C213.866 277.319 213.686 277.548 213.462 277.734C213.237 277.923 213 278.076 212.751 278.193C212.593 278.267 212.402 278.333 212.178 278.391C211.953 278.453 211.717 278.47 211.469 278.445C211.22 278.421 210.976 278.322 210.738 278.149C210.5 277.976 210.289 277.693 210.105 277.301L208.578 274.047L209.337 273.691L209.651 274.36L209.689 274.342C209.691 274.211 209.722 274.056 209.785 273.877C209.848 273.699 209.959 273.52 210.118 273.341C210.277 273.161 210.5 273.004 210.787 272.87ZM210.991 273.605C210.691 273.746 210.466 273.924 210.316 274.138C210.163 274.354 210.078 274.579 210.06 274.815C210.041 275.052 210.079 275.273 210.176 275.479L210.502 276.173C210.516 276.12 210.57 276.051 210.664 275.968C210.757 275.887 210.869 275.802 210.999 275.712C211.128 275.625 211.255 275.542 211.38 275.463C211.504 275.386 211.604 275.324 211.68 275.275C211.866 275.157 212.03 275.028 212.175 274.89C212.318 274.755 212.415 274.606 212.467 274.443C212.517 274.283 212.498 274.107 212.407 273.914C212.283 273.65 212.092 273.497 211.834 273.453C211.574 273.413 211.294 273.464 210.991 273.605Z" fill="black"/>
<path d="M199.894 283.634L199.883 277.818L200.681 277.521L204.474 281.93L203.622 282.247L200.695 278.698L200.642 278.718L200.746 283.317L199.894 283.634Z" fill="black"/>
<path d="M189.948 281.149C190.28 281.056 190.6 281.034 190.906 281.084C191.213 281.135 191.48 281.259 191.707 281.454C191.934 281.651 192.095 281.92 192.191 282.262C192.275 282.563 192.284 282.824 192.218 283.044C192.152 283.266 192.035 283.459 191.866 283.621C191.698 283.784 191.501 283.925 191.277 284.044C191.05 284.166 190.82 284.278 190.585 284.378C190.277 284.508 190.027 284.611 189.834 284.687C189.64 284.766 189.504 284.844 189.428 284.922C189.349 285.001 189.328 285.105 189.364 285.235L189.372 285.262C189.466 285.6 189.632 285.836 189.869 285.972C190.103 286.108 190.406 286.124 190.778 286.02C191.163 285.912 191.442 285.743 191.614 285.513C191.785 285.284 191.889 285.06 191.924 284.844L192.767 284.903C192.719 285.261 192.606 285.56 192.428 285.802C192.248 286.047 192.032 286.242 191.781 286.389C191.528 286.538 191.269 286.65 191.004 286.724C190.835 286.771 190.636 286.804 190.406 286.824C190.174 286.848 189.938 286.826 189.698 286.76C189.456 286.695 189.232 286.558 189.026 286.347C188.82 286.137 188.658 285.823 188.542 285.406L187.574 281.945L188.381 281.719L188.58 282.431L188.621 282.419C188.644 282.29 188.701 282.142 188.793 281.977C188.884 281.811 189.023 281.653 189.209 281.503C189.396 281.352 189.642 281.234 189.948 281.149ZM190.027 281.908C189.708 281.997 189.456 282.135 189.272 282.322C189.086 282.509 188.965 282.718 188.909 282.947C188.85 283.177 188.852 283.402 188.913 283.621L189.119 284.36C189.142 284.309 189.207 284.25 189.313 284.184C189.419 284.12 189.543 284.054 189.686 283.987C189.828 283.923 189.967 283.862 190.103 283.804C190.238 283.749 190.347 283.704 190.431 283.669C190.633 283.583 190.816 283.483 190.982 283.371C191.145 283.261 191.266 283.13 191.344 282.978C191.42 282.829 191.43 282.652 191.372 282.447C191.294 282.166 191.131 281.983 190.883 281.898C190.634 281.815 190.349 281.818 190.027 281.908Z" fill="black"/>
<path d="M177.404 289.984C177.511 290.33 177.732 290.573 178.066 290.714C178.4 290.854 178.784 290.885 179.217 290.805C179.533 290.746 179.801 290.644 180.019 290.498C180.236 290.352 180.393 290.177 180.493 289.973C180.59 289.77 180.618 289.554 180.576 289.326C180.54 289.135 180.465 288.979 180.349 288.859C180.231 288.741 180.091 288.65 179.93 288.586C179.769 288.524 179.604 288.479 179.435 288.45C179.267 288.423 179.113 288.404 178.974 288.394L178.211 288.333C178.016 288.318 177.796 288.289 177.552 288.245C177.306 288.201 177.064 288.124 176.827 288.014C176.588 287.907 176.379 287.75 176.199 287.545C176.019 287.34 175.898 287.07 175.836 286.735C175.765 286.348 175.801 285.98 175.946 285.631C176.089 285.282 176.336 284.98 176.689 284.725C177.039 284.47 177.489 284.291 178.038 284.19C178.55 284.095 179.009 284.096 179.414 284.192C179.817 284.289 180.153 284.465 180.422 284.721C180.689 284.978 180.872 285.299 180.972 285.685L180.078 285.85C180.005 285.584 179.873 285.377 179.682 285.23C179.489 285.085 179.262 284.992 179.002 284.951C178.74 284.913 178.467 284.92 178.183 284.972C177.852 285.033 177.565 285.142 177.322 285.297C177.079 285.455 176.899 285.645 176.781 285.867C176.663 286.091 176.628 286.333 176.677 286.594C176.72 286.831 176.822 287.012 176.983 287.137C177.143 287.261 177.34 287.35 177.574 287.403C177.807 287.456 178.056 287.495 178.321 287.518L179.247 287.607C179.835 287.664 180.32 287.812 180.701 288.05C181.082 288.287 181.317 288.647 181.406 289.129C181.48 289.53 181.436 289.899 181.275 290.237C181.111 290.578 180.861 290.865 180.524 291.098C180.185 291.334 179.787 291.494 179.331 291.578C178.87 291.663 178.445 291.656 178.056 291.557C177.667 291.461 177.342 291.289 177.08 291.044C176.815 290.799 176.644 290.497 176.566 290.139L177.404 289.984Z" fill="black"/>
<path d="M165.554 286.19C166.063 286.143 166.513 286.222 166.903 286.428C167.293 286.634 167.607 286.938 167.845 287.342C168.082 287.745 168.227 288.218 168.277 288.76C168.329 289.311 168.273 289.808 168.11 290.249C167.945 290.692 167.691 291.05 167.348 291.322C167.003 291.597 166.585 291.758 166.095 291.804C165.713 291.839 165.362 291.801 165.042 291.688C164.723 291.576 164.453 291.401 164.234 291.165C164.014 290.929 163.865 290.643 163.786 290.308L164.62 290.23C164.707 290.471 164.869 290.677 165.106 290.848C165.341 291.021 165.642 291.09 166.01 291.055C166.335 291.025 166.613 290.913 166.842 290.721C167.069 290.53 167.237 290.276 167.345 289.956C167.45 289.64 167.484 289.276 167.446 288.866C167.406 288.447 167.306 288.088 167.145 287.789C166.981 287.49 166.77 287.266 166.511 287.117C166.25 286.968 165.954 286.909 165.624 286.94C165.407 286.96 165.214 287.016 165.044 287.108C164.875 287.2 164.735 287.323 164.626 287.476C164.517 287.629 164.445 287.807 164.412 288.009L163.578 288.088C163.595 287.763 163.684 287.463 163.846 287.189C164.006 286.917 164.231 286.691 164.521 286.512C164.809 286.335 165.153 286.228 165.554 286.19Z" fill="black"/>
<path d="M156.198 287.047L156.318 292.5L155.508 292.518L155.49 291.694L155.433 291.695C155.34 291.967 155.165 292.19 154.908 292.364C154.651 292.538 154.36 292.628 154.033 292.635C153.971 292.637 153.895 292.637 153.802 292.637C153.71 292.637 153.64 292.634 153.592 292.631L153.574 291.779C153.602 291.785 153.668 291.794 153.77 291.806C153.87 291.821 153.975 291.827 154.086 291.824C154.351 291.819 154.587 291.758 154.793 291.642C154.996 291.529 155.156 291.374 155.273 291.177C155.387 290.983 155.441 290.762 155.436 290.516L155.361 287.065L156.198 287.047Z" fill="black"/>
<path d="M148.083 287.145L147.937 292.597L147.099 292.575L147.245 287.122L148.083 287.145ZM147.487 293.495C147.65 293.499 147.789 293.559 147.904 293.673C148.017 293.787 148.072 293.923 148.068 294.079C148.063 294.235 148.002 294.367 147.883 294.475C147.762 294.583 147.619 294.635 147.456 294.631C147.293 294.626 147.155 294.567 147.042 294.453C146.926 294.338 146.871 294.203 146.875 294.047C146.879 293.891 146.942 293.758 147.063 293.65C147.182 293.542 147.323 293.49 147.487 293.495Z" fill="black"/>
<path d="M142.78 285.008L142.097 292.477L141.291 292.403L141.37 291.54L141.271 291.531C141.201 291.62 141.105 291.732 140.983 291.868C140.859 292.007 140.689 292.124 140.473 292.221C140.255 292.32 139.969 292.353 139.615 292.321C139.158 292.279 138.765 292.128 138.437 291.867C138.109 291.607 137.866 291.258 137.709 290.82C137.552 290.382 137.499 289.878 137.551 289.308C137.604 288.733 137.747 288.243 137.982 287.839C138.216 287.437 138.517 287.137 138.884 286.937C139.252 286.74 139.662 286.662 140.115 286.704C140.463 286.736 140.738 286.819 140.937 286.954C141.136 287.091 141.285 287.239 141.385 287.398C141.484 287.559 141.56 287.692 141.612 287.796L141.683 287.803L141.945 284.931L142.78 285.008ZM141.525 289.686C141.562 289.275 141.535 288.908 141.444 288.583C141.352 288.261 141.199 288.001 140.984 287.803C140.769 287.608 140.494 287.494 140.159 287.464C139.81 287.432 139.511 287.497 139.26 287.66C139.008 287.824 138.808 288.058 138.661 288.361C138.512 288.666 138.42 289.012 138.385 289.398C138.35 289.78 138.377 290.13 138.467 290.447C138.554 290.767 138.708 291.027 138.927 291.227C139.144 291.43 139.429 291.548 139.783 291.58C140.122 291.611 140.415 291.551 140.662 291.4C140.909 291.252 141.105 291.03 141.251 290.734C141.396 290.44 141.488 290.091 141.525 289.686Z" fill="black"/>
<path d="M127.203 290.776L127.317 290.074L130.107 290.528L129.993 291.229L127.203 290.776ZM128.97 292.387L128.143 292.252L128.978 287.121C129.016 286.887 129.01 286.707 128.961 286.579C128.91 286.453 128.834 286.361 128.733 286.304C128.629 286.249 128.516 286.211 128.395 286.192C128.304 286.177 128.228 286.169 128.168 286.169C128.108 286.171 128.06 286.173 128.023 286.174L127.976 285.404C128.036 285.392 128.117 285.384 128.221 285.379C128.325 285.372 128.455 285.381 128.609 285.406C128.843 285.444 129.063 285.532 129.271 285.669C129.477 285.805 129.637 285.988 129.751 286.218C129.862 286.447 129.892 286.718 129.841 287.031L128.97 292.387Z" fill="black"/>
<path d="M116.439 288.617L115.627 288.41L117.075 282.739C117.158 282.414 117.287 282.146 117.46 281.936C117.631 281.726 117.846 281.584 118.104 281.51C118.36 281.436 118.657 281.443 118.997 281.53C119.024 281.537 119.052 281.544 119.079 281.551C119.107 281.558 119.135 281.565 119.162 281.572L118.969 282.329C118.941 282.322 118.916 282.315 118.893 282.309C118.87 282.303 118.845 282.297 118.817 282.29C118.57 282.227 118.37 282.254 118.217 282.371C118.066 282.487 117.956 282.678 117.887 282.947L116.439 288.617ZM115.815 289.396C115.973 289.436 116.096 289.525 116.183 289.662C116.268 289.799 116.291 289.943 116.252 290.094C116.214 290.245 116.124 290.361 115.984 290.44C115.842 290.518 115.692 290.537 115.534 290.497C115.375 290.456 115.254 290.368 115.169 290.231C115.082 290.094 115.058 289.95 115.096 289.799C115.135 289.647 115.225 289.532 115.368 289.454C115.508 289.375 115.657 289.355 115.815 289.396Z" fill="black"/>
<path d="M109.085 283.344L108.17 283.035L107.744 281.766L107.633 281.429L107.004 279.521L107.919 279.831L108.331 281.095L108.433 281.414L109.085 283.344ZM105.338 283.517C105.584 282.79 105.927 282.206 106.369 281.766C106.81 281.325 107.308 281.039 107.863 280.906C108.417 280.774 108.988 280.808 109.576 281.007C110.163 281.205 110.637 281.525 110.998 281.966C111.358 282.408 111.58 282.938 111.664 283.556C111.747 284.174 111.666 284.846 111.42 285.573C111.175 286.3 110.831 286.883 110.39 287.324C109.948 287.764 109.45 288.052 108.896 288.184C108.341 288.317 107.77 288.283 107.183 288.085C106.595 287.886 106.121 287.565 105.761 287.123C105.4 286.681 105.178 286.151 105.095 285.533C105.011 284.915 105.092 284.243 105.338 283.517ZM106.145 283.789C105.944 284.386 105.873 284.923 105.934 285.401C105.993 285.878 106.156 286.28 106.423 286.605C106.688 286.929 107.029 287.162 107.447 287.303C107.864 287.444 108.277 287.467 108.687 287.37C109.095 287.273 109.468 287.053 109.806 286.71C110.142 286.367 110.411 285.897 110.613 285.3C110.815 284.703 110.886 284.167 110.828 283.689C110.767 283.212 110.604 282.81 110.339 282.486C110.071 282.16 109.729 281.927 109.312 281.786C108.895 281.645 108.482 281.623 108.075 281.72C107.665 281.817 107.292 282.037 106.956 282.38C106.617 282.723 106.347 283.193 106.145 283.789Z" fill="black"/>
<path d="M94.0027 277.63L92.6694 280.566L91.9062 280.219L94.1618 275.253L94.9248 275.599L94.5431 276.44L94.5948 276.463C94.8257 276.264 95.1042 276.132 95.4302 276.067C95.7552 276.004 96.1053 276.057 96.4803 276.228C96.7907 276.369 97.0358 276.562 97.2156 276.807C97.3943 277.055 97.49 277.348 97.5027 277.687C97.5144 278.027 97.4243 278.409 97.2324 278.831L95.7992 281.987L95.0362 281.641L96.4458 278.537C96.6103 278.174 96.6402 277.84 96.5354 277.532C96.4285 277.223 96.2167 276.997 95.8998 276.853C95.7101 276.767 95.4952 276.728 95.255 276.736C95.0126 276.743 94.7791 276.816 94.5544 276.956C94.3276 277.095 94.1436 277.319 94.0027 277.63Z" fill="black"/>
<path d="M85.1993 270.735C85.657 270.993 85.9948 271.317 86.2127 271.707C86.4273 272.097 86.5214 272.525 86.4948 272.991C86.4649 273.458 86.3127 273.935 86.0381 274.422C85.7635 274.908 85.4327 275.287 85.0459 275.558C84.6559 275.83 84.2425 275.98 83.8054 276.008C83.3651 276.036 82.9305 275.93 82.5017 275.688C82.2543 275.548 82.0332 275.369 81.8385 275.15C81.6439 274.932 81.4999 274.674 81.4067 274.377C81.3124 274.081 81.292 273.749 81.3455 273.38C81.3991 273.01 81.5509 272.604 81.8011 272.161L81.9757 271.851L85.6372 273.918L85.2812 274.549L82.3618 272.901C82.2105 273.169 82.1291 273.439 82.1177 273.709C82.1041 273.979 82.1609 274.23 82.2881 274.462C82.4133 274.693 82.6078 274.883 82.8717 275.032C83.1624 275.196 83.4547 275.266 83.7485 275.242C84.0391 275.218 84.3056 275.124 84.5482 274.959C84.7907 274.794 84.9859 274.581 85.1337 274.319L85.3711 273.898C85.5736 273.54 85.6834 273.201 85.7005 272.881C85.7143 272.563 85.6466 272.276 85.4972 272.02C85.3467 271.767 85.1241 271.557 84.8292 271.391C84.6375 271.282 84.4492 271.211 84.2643 271.178C84.0762 271.145 83.8945 271.151 83.7194 271.196C83.5432 271.244 83.3777 271.332 83.2228 271.462L82.6294 270.867C82.8386 270.669 83.082 270.529 83.3597 270.447C83.6361 270.366 83.9316 270.348 84.2464 270.393C84.5599 270.439 84.8776 270.553 85.1993 270.735Z" fill="black"/>
<path d="M76.9865 266.076L73.9669 270.618L73.2925 270.17L73.7486 269.484L73.7013 269.453C73.469 269.622 73.198 269.705 72.8881 269.701C72.5781 269.697 72.2871 269.604 72.0151 269.423C71.9638 269.389 71.9004 269.346 71.8248 269.293C71.7492 269.239 71.6931 269.198 71.6562 269.168L72.1281 268.458C72.1479 268.48 72.1961 268.524 72.273 268.593C72.3466 268.662 72.4298 268.727 72.5224 268.788C72.7432 268.935 72.9712 269.02 73.2063 269.043C73.4381 269.066 73.6581 269.03 73.8661 268.935C74.0709 268.841 74.2413 268.692 74.3776 268.486L76.2886 265.612L76.9865 266.076Z" fill="black"/>
<path d="M70.9468 259.55C71.0592 259.637 71.1521 259.724 71.2257 259.811C71.3007 259.896 71.3485 259.96 71.3692 260.003L70.7488 260.457C70.6196 260.291 70.4889 260.166 70.3566 260.081C70.2243 259.997 70.072 259.968 69.8997 259.993C69.727 260.015 69.5157 260.105 69.2657 260.262L68.8815 260.503L67.1234 266.074L66.4042 265.518L67.8717 261.159L67.8268 261.124L63.977 263.642L63.2578 263.086L68.9124 259.557C69.1671 259.398 69.4118 259.293 69.6465 259.241C69.8827 259.187 70.1088 259.187 70.3249 259.24C70.5391 259.292 70.7464 259.395 70.9468 259.55Z" fill="black"/>
<path d="M56.5154 250.341L51.3509 255.462L49.6207 253.717C49.2206 253.313 48.9612 252.914 48.8424 252.518C48.7218 252.124 48.7193 251.747 48.8346 251.385C48.95 251.024 49.1598 250.693 49.4641 250.391C49.7684 250.09 50.0999 249.884 50.4586 249.775C50.8173 249.666 51.1915 249.674 51.581 249.798C51.9688 249.923 52.3611 250.186 52.7578 250.586L54.158 251.998L53.5931 252.558L52.2129 251.166C51.9396 250.891 51.6792 250.709 51.4318 250.621C51.1828 250.531 50.9468 250.521 50.7238 250.592C50.4975 250.664 50.281 250.802 50.0742 251.007C49.8674 251.212 49.725 251.429 49.647 251.66C49.5691 251.891 49.5722 252.133 49.6565 252.386C49.7391 252.641 49.9188 252.908 50.1955 253.187L51.2856 254.286L55.8953 249.716L56.5154 250.341ZM51.7851 250.21L52.845 246.639L53.5651 247.365L52.4852 250.916L51.7851 250.21Z" fill="black"/>
<path d="M46.3486 239.481C46.6836 239.886 46.8832 240.309 46.9474 240.751C47.0083 241.192 46.943 241.626 46.7515 242.051C46.5566 242.477 46.2439 242.868 45.8134 243.224C45.383 243.58 44.9387 243.816 44.4806 243.93C44.0191 244.045 43.5793 244.037 43.1612 243.907C42.7397 243.776 42.372 243.521 42.0581 243.142C41.877 242.923 41.7346 242.676 41.631 242.403C41.5274 242.129 41.4852 241.837 41.5045 241.526C41.5219 241.216 41.6217 240.899 41.8038 240.573C41.9859 240.247 42.2731 239.922 42.6652 239.597L42.9388 239.371L45.6192 242.61L45.061 243.072L42.924 240.489C42.6869 240.686 42.5145 240.908 42.407 241.157C42.2979 241.404 42.2612 241.658 42.297 241.921C42.3312 242.181 42.4449 242.428 42.6381 242.662C42.8509 242.919 43.0989 243.089 43.382 243.171C43.6618 243.253 43.9444 243.26 44.2299 243.193C44.5154 243.126 44.7739 242.996 45.0056 242.805L45.3777 242.497C45.695 242.234 45.9188 241.957 46.049 241.665C46.1758 241.372 46.2152 241.08 46.1671 240.788C46.1172 240.498 45.9843 240.222 45.7685 239.961C45.6282 239.791 45.4777 239.658 45.3171 239.56C45.1531 239.462 44.9813 239.403 44.8016 239.383C44.6201 239.364 44.4338 239.388 44.2426 239.454L43.9015 238.685C44.1675 238.576 44.4448 238.532 44.7336 238.554C45.0206 238.578 45.3031 238.667 45.5811 238.821C45.8573 238.977 46.1131 239.197 46.3486 239.481Z" fill="black"/>
<path d="M39.3134 230.586C39.5102 230.87 39.6353 231.165 39.6887 231.471C39.7401 231.778 39.7108 232.071 39.6008 232.348C39.4889 232.627 39.287 232.868 38.9951 233.07C38.7382 233.248 38.4949 233.342 38.2652 233.351C38.0336 233.362 37.8134 233.314 37.6046 233.208C37.3959 233.102 37.1984 232.963 37.0121 232.789C36.8225 232.615 36.6419 232.434 36.4704 232.244C36.2467 231.996 36.0674 231.794 35.9326 231.636C35.7945 231.479 35.6761 231.376 35.5775 231.329C35.4774 231.281 35.3719 231.295 35.261 231.371L35.2377 231.388C34.9496 231.587 34.7804 231.821 34.73 232.089C34.6783 232.355 34.7623 232.647 34.982 232.964C35.2098 233.293 35.4604 233.501 35.7339 233.588C36.0073 233.675 36.252 233.7 36.4681 233.663L36.6875 234.479C36.3341 234.551 36.0142 234.542 35.7276 234.452C35.4377 234.362 35.1823 234.222 34.9616 234.033C34.7376 233.842 34.5473 233.634 34.391 233.408C34.2912 233.264 34.1942 233.087 34.0998 232.876C34.0021 232.664 33.9451 232.434 33.9289 232.186C33.9113 231.936 33.9682 231.679 34.0994 231.416C34.2307 231.152 34.4744 230.897 34.8305 230.65L37.7848 228.604L38.262 229.293L37.6548 229.713L37.679 229.748C37.8087 229.728 37.9667 229.733 38.1532 229.766C38.3396 229.798 38.5344 229.877 38.7376 230.004C38.9408 230.131 39.1328 230.325 39.3134 230.586ZM38.6217 230.91C38.433 230.637 38.2204 230.445 37.984 230.332C37.7462 230.217 37.5096 230.171 37.2742 230.193C37.0375 230.213 36.8257 230.288 36.6389 230.417L36.0083 230.854C36.0636 230.859 36.1402 230.901 36.2381 230.98C36.3328 231.058 36.4353 231.154 36.5457 231.268C36.6527 231.381 36.7559 231.492 36.855 231.602C36.9509 231.711 37.0293 231.8 37.0902 231.867C37.2376 232.03 37.3915 232.171 37.5519 232.29C37.709 232.409 37.8721 232.48 38.0413 232.504C38.2072 232.527 38.3777 232.478 38.5529 232.357C38.7923 232.191 38.9119 231.977 38.9119 231.715C38.9085 231.453 38.8118 231.184 38.6217 230.91Z" fill="black"/>
<path d="M32.6874 220.58C32.9424 221.023 33.0572 221.465 33.032 221.905C33.0068 222.346 32.8601 222.758 32.5919 223.142C32.3237 223.525 31.9536 223.853 31.4816 224.124C31.0014 224.401 30.5268 224.556 30.058 224.591C29.5859 224.625 29.1547 224.542 28.7645 224.343C28.3711 224.144 28.0516 223.83 27.8061 223.403C27.6149 223.071 27.5041 222.736 27.4738 222.398C27.4435 222.061 27.4902 221.743 27.6139 221.445C27.7376 221.147 27.9354 220.893 28.2073 220.682L28.6251 221.409C28.4415 221.588 28.3215 221.821 28.265 222.107C28.2053 222.393 28.2675 222.696 28.4516 223.016C28.6145 223.299 28.8312 223.505 29.1017 223.633C29.369 223.761 29.6703 223.807 30.0055 223.773C30.3375 223.738 30.6821 223.617 31.0391 223.412C31.4044 223.202 31.6895 222.962 31.8943 222.691C32.0979 222.418 32.2138 222.133 32.2421 221.835C32.2691 221.536 32.2001 221.242 32.0348 220.955C31.9262 220.766 31.7948 220.614 31.6406 220.498C31.4865 220.381 31.3171 220.305 31.1326 220.27C30.9481 220.234 30.7567 220.243 30.5583 220.297L30.1405 219.57C30.4432 219.451 30.753 219.408 31.0699 219.441C31.3836 219.474 31.6823 219.585 31.9659 219.774C32.2463 219.962 32.4868 220.231 32.6874 220.58Z" fill="black"/>
<path d="M22.1322 212.766L22.7705 212.455L24.0104 214.995L23.3722 215.306L22.1322 212.766ZM21.8363 215.139L21.4688 214.386L26.1406 212.105C26.3534 212.002 26.498 211.893 26.5743 211.779C26.6473 211.665 26.6781 211.549 26.6665 211.434C26.6517 211.317 26.6172 211.204 26.5632 211.093C26.5227 211.01 26.4852 210.944 26.4508 210.895C26.4142 210.847 26.385 210.809 26.363 210.78L26.9648 210.296C27.0089 210.338 27.0628 210.4 27.1266 210.482C27.1925 210.563 27.2598 210.674 27.3283 210.814C27.4322 211.027 27.4882 211.258 27.4964 211.507C27.5036 211.754 27.4462 211.99 27.3244 212.215C27.2016 212.439 26.9977 212.62 26.7126 212.759L21.8363 215.139Z" fill="black"/>
<path d="M15.5957 202.653L20.6734 198.609L20.6455 198.528L14.1539 198.493L13.8516 197.62L21.5978 197.762L21.8955 198.621L15.898 203.526L15.5957 202.653Z" fill="black"/>
<path d="M18.3052 187.61L13.0381 189.028L12.8203 188.219L18.0874 186.801L18.3052 187.61ZM12.0495 188.853C12.092 189.011 12.0749 189.161 11.9982 189.304C11.9209 189.445 11.8068 189.536 11.6559 189.577C11.5051 189.617 11.3608 189.596 11.2232 189.513C11.085 189.427 10.9947 189.306 10.9522 189.148C10.9098 188.99 10.9272 188.841 11.0045 188.7C11.0811 188.557 11.1949 188.465 11.3458 188.424C11.4967 188.384 11.6412 188.406 11.7794 188.492C11.917 188.575 12.0071 188.695 12.0495 188.853Z" fill="black"/>
<path d="M11.9396 179.416L12.3004 180.11C12.1871 180.182 12.0818 180.275 11.9845 180.389C11.8844 180.501 11.8119 180.642 11.767 180.811C11.722 180.98 11.7242 181.184 11.7735 181.422C11.8409 181.749 11.9725 182.006 12.1681 182.193C12.361 182.378 12.5722 182.447 12.8018 182.4C13.0058 182.357 13.1516 182.25 13.2393 182.077C13.3269 181.904 13.3776 181.652 13.3914 181.321L13.4225 180.488C13.4399 179.986 13.5439 179.593 13.7344 179.31C13.9226 179.027 14.2033 178.847 14.5766 178.77C14.8827 178.707 15.1744 178.739 15.4519 178.865C15.7289 178.989 15.9693 179.193 16.173 179.478C16.3767 179.762 16.5213 180.112 16.6069 180.527C16.7194 181.072 16.6941 181.547 16.5313 181.953C16.3685 182.359 16.0697 182.656 15.6348 182.845L15.2793 182.106C15.5515 181.972 15.7382 181.788 15.8394 181.552C15.9401 181.313 15.9558 181.026 15.8864 180.69C15.8075 180.307 15.6637 180.02 15.455 179.829C15.2435 179.636 15.023 179.563 14.7934 179.61C14.6079 179.648 14.466 179.745 14.3676 179.901C14.2668 180.057 14.2129 180.276 14.2058 180.558L14.1808 181.491C14.1658 182.005 14.0602 182.401 13.8642 182.681C13.6653 182.959 13.3815 183.136 13.0128 183.212C12.7114 183.274 12.4273 183.244 12.1605 183.123C11.8933 182.999 11.6632 182.804 11.4703 182.536C11.2769 182.267 11.1415 181.944 11.064 181.569C10.9549 181.04 10.9852 180.601 11.1549 180.252C11.3241 179.9 11.5856 179.622 11.9396 179.416Z" fill="black"/>
<path d="M12.134 168.727L8.9331 169.116L8.83203 168.284L14.2468 167.626L14.3479 168.458L13.4313 168.569L13.4382 168.625C13.7285 168.719 13.9864 168.888 14.2116 169.132C14.4345 169.377 14.5708 169.704 14.6205 170.113C14.6616 170.451 14.6241 170.761 14.5081 171.042C14.3896 171.324 14.1891 171.558 13.9066 171.745C13.6217 171.932 13.2489 172.054 12.7883 172.11L9.34766 172.528L9.24659 171.696L12.6308 171.285C13.0257 171.237 13.3272 171.088 13.5353 170.839C13.7432 170.587 13.8262 170.288 13.7842 169.943C13.7591 169.736 13.6807 169.532 13.5489 169.331C13.4169 169.128 13.2327 168.966 12.9965 168.847C12.7599 168.726 12.4724 168.686 12.134 168.727Z" fill="black"/>
<path d="M13.4809 158.286C13.4932 158.631 13.4393 158.947 13.3192 159.233C13.1967 159.519 13.0142 159.75 12.7717 159.924C12.5268 160.099 12.2269 160.192 11.872 160.205C11.5597 160.216 11.3043 160.163 11.106 160.047C10.9052 159.931 10.7456 159.772 10.6271 159.57C10.5085 159.368 10.4177 159.144 10.3544 158.898C10.2887 158.649 10.2348 158.399 10.1927 158.147C10.1383 157.817 10.0968 157.55 10.0682 157.344C10.0372 157.137 9.99271 156.987 9.93493 156.894C9.87707 156.799 9.78071 156.754 9.64586 156.759L9.61747 156.76C9.26731 156.772 8.99863 156.878 8.81144 157.076C8.62416 157.273 8.53737 157.564 8.55108 157.949C8.5653 158.349 8.66399 158.659 8.84715 158.88C9.0303 159.101 9.22289 159.254 9.42491 159.339L9.16925 160.145C8.83297 160.014 8.56835 159.834 8.3754 159.604C8.18 159.372 8.04063 159.116 7.95727 158.837C7.87147 158.556 7.82369 158.278 7.81393 158.004C7.80771 157.829 7.82185 157.627 7.85636 157.398C7.88842 157.167 7.96455 156.943 8.08474 156.726C8.20484 156.506 8.39132 156.32 8.64415 156.169C8.89699 156.018 9.23989 155.935 9.67285 155.919L13.2644 155.792L13.2941 156.629L12.556 156.656L12.5575 156.698C12.6778 156.751 12.8077 156.841 12.9473 156.969C13.0869 157.096 13.2079 157.268 13.3103 157.485C13.4128 157.702 13.4697 157.969 13.4809 158.286ZM12.724 158.185C12.7123 157.853 12.6373 157.576 12.4991 157.354C12.3608 157.129 12.1867 156.962 11.9767 156.854C11.7667 156.743 11.5481 156.691 11.3209 156.699L10.5544 156.727C10.5982 156.761 10.64 156.837 10.6798 156.957C10.7172 157.074 10.7516 157.21 10.7832 157.365C10.8123 157.518 10.8389 157.668 10.8631 157.814C10.8848 157.957 10.9031 158.074 10.9182 158.164C10.9543 158.38 11.0077 158.582 11.0783 158.769C11.1464 158.954 11.2453 159.102 11.3748 159.213C11.5019 159.322 11.6719 159.373 11.8848 159.366C12.1758 159.355 12.392 159.24 12.5334 159.019C12.6723 158.796 12.7359 158.518 12.724 158.185Z" fill="black"/>
<path d="M5.90408 147.437L13.1745 147.621L13.1532 148.459L5.88281 148.274L5.90408 147.437Z" fill="black"/>
<path d="M8.82935 132.171C8.46705 132.165 8.16689 132.298 7.92889 132.572C7.69089 132.845 7.54212 133.2 7.48259 133.636C7.43906 133.955 7.45258 134.241 7.52315 134.495C7.59404 134.746 7.71067 134.95 7.87304 135.109C8.03574 135.265 8.23202 135.358 8.4619 135.39C8.65425 135.416 8.82586 135.393 8.97674 135.32C9.12559 135.245 9.25568 135.141 9.367 135.008C9.47598 134.874 9.57068 134.732 9.65108 134.581C9.72914 134.429 9.79488 134.288 9.84831 134.159L10.1452 133.455C10.2201 133.274 10.3166 133.074 10.4347 132.856C10.5532 132.636 10.7019 132.43 10.8808 132.24C11.0577 132.046 11.2717 131.896 11.5229 131.79C11.774 131.683 12.0684 131.653 12.4062 131.699C12.7956 131.752 13.1335 131.902 13.42 132.149C13.7068 132.393 13.9163 132.723 14.0484 133.138C14.1809 133.55 14.2094 134.033 14.1339 134.587C14.0635 135.103 13.9193 135.538 13.7012 135.893C13.4834 136.246 13.2109 136.509 12.8835 136.685C12.5565 136.857 12.194 136.931 11.7961 136.905L11.919 136.005C12.1943 136.018 12.432 135.958 12.632 135.822C12.83 135.685 12.9892 135.498 13.1096 135.264C13.228 135.027 13.3067 134.765 13.3458 134.479C13.3912 134.146 13.3781 133.839 13.3063 133.56C13.2322 133.28 13.1084 133.049 12.9348 132.867C12.7589 132.686 12.5396 132.577 12.2769 132.541C12.0376 132.508 11.8338 132.549 11.6654 132.662C11.4971 132.775 11.3511 132.935 11.2275 133.14C11.1039 133.345 10.9897 133.57 10.8847 133.813L10.5104 134.666C10.2717 135.206 9.97988 135.621 9.63483 135.908C9.28977 136.195 8.87447 136.306 8.38891 136.24C7.98545 136.185 7.64848 136.028 7.37799 135.769C7.10548 135.507 6.91124 135.179 6.79526 134.786C6.67726 134.39 6.64962 133.962 6.71235 133.502C6.77572 133.038 6.91532 132.636 7.13115 132.298C7.34464 131.959 7.60887 131.704 7.92385 131.531C8.23915 131.357 8.57939 131.289 8.94457 131.327L8.82935 132.171Z" fill="black"/>
<path d="M10.7229 120.917L11.4179 121.064L10.8351 123.83L10.1401 123.683L10.7229 120.917ZM9.03125 122.608L9.20404 121.788L14.2912 122.86C14.5228 122.908 14.7037 122.911 14.8336 122.869C14.9618 122.823 15.0568 122.751 15.1186 122.653C15.1786 122.552 15.2213 122.441 15.2467 122.321C15.2657 122.23 15.2767 122.155 15.2797 122.095C15.2803 122.035 15.2808 121.987 15.2812 121.95L16.053 121.939C16.0621 121.999 16.0666 122.081 16.0665 122.185C16.0686 122.289 16.0536 122.418 16.0214 122.571C15.9726 122.803 15.875 123.019 15.7285 123.221C15.5825 123.42 15.3922 123.571 15.1576 123.674C14.9235 123.774 14.6512 123.792 14.3408 123.727L9.03125 122.608Z" fill="black"/>
<path d="M15.8168 113.513L12.7159 112.629L12.9457 111.823L18.1912 113.318L17.9614 114.124L17.0735 113.871L17.0579 113.926C17.2893 114.124 17.4613 114.38 17.574 114.693C17.6844 115.005 17.6831 115.359 17.5702 115.755C17.4767 116.083 17.3219 116.354 17.1058 116.568C16.8874 116.782 16.6117 116.92 16.2787 116.982C15.9435 117.044 15.5527 117.012 15.1065 116.885L11.7734 115.934L12.0032 115.128L15.2816 116.063C15.6641 116.172 15.9997 116.152 16.2884 116.003C16.5777 115.852 16.7701 115.609 16.8655 115.274C16.9226 115.074 16.9295 114.855 16.8861 114.619C16.8434 114.38 16.7363 114.16 16.5648 113.959C16.394 113.755 16.1446 113.606 15.8168 113.513Z" fill="black"/>
<path d="M21.2341 104.029C21.0709 104.454 20.8196 104.787 20.4803 105.029C20.1388 105.271 19.7361 105.407 19.2722 105.439C18.8062 105.471 18.3036 105.383 17.7645 105.175C17.2298 104.969 16.8011 104.699 16.4784 104.364C16.1557 104.03 15.9501 103.657 15.8616 103.248C15.7731 102.838 15.8114 102.419 15.9763 101.991C16.1039 101.659 16.2599 101.419 16.4443 101.269C16.6274 101.116 16.8081 101.016 16.9864 100.968C17.1634 100.917 17.3071 100.879 17.4176 100.856L17.4431 100.79L14.9375 99.8252L15.2385 99.043L22.026 101.655L21.7352 102.411L20.953 102.11L20.9173 102.203C20.988 102.296 21.0737 102.423 21.1743 102.583C21.2726 102.743 21.3392 102.942 21.374 103.181C21.4066 103.42 21.36 103.702 21.2341 104.029ZM20.5723 103.653C20.6931 103.339 20.7134 103.043 20.6332 102.763C20.5508 102.483 20.3855 102.23 20.1372 102.005C19.8867 101.78 19.5692 101.593 19.1848 101.445C18.8048 101.299 18.451 101.226 18.1235 101.227C17.7937 101.227 17.5076 101.304 17.2652 101.459C17.0206 101.614 16.8371 101.85 16.7146 102.168C16.5871 102.5 16.5659 102.809 16.651 103.095C16.7347 103.378 16.9 103.631 17.147 103.853C17.3925 104.072 17.6943 104.25 18.0522 104.388C18.4146 104.527 18.765 104.599 19.1036 104.602C19.4408 104.603 19.7388 104.527 19.9975 104.375C20.2549 104.221 20.4465 103.98 20.5723 103.653Z" fill="black"/>
<path d="M24.9444 94.5521L19.9914 92.2673L20.3425 91.5063L25.2954 93.7911L24.9444 94.5521ZM19.3444 91.4995C19.276 91.6479 19.1665 91.7525 19.0158 91.8134C18.8662 91.8721 18.7205 91.8687 18.5786 91.8033C18.4367 91.7378 18.3395 91.6291 18.2871 91.4772C18.2356 91.3231 18.2441 91.1719 18.3125 91.0235C18.381 90.8752 18.49 90.7717 18.6396 90.713C18.7902 90.6521 18.9365 90.6544 19.0784 90.7198C19.2203 90.7853 19.3169 90.895 19.3684 91.0491C19.4208 91.2011 19.4128 91.3512 19.3444 91.4995Z" fill="black"/>
<path d="M28.3342 87.7C28.0997 88.133 27.791 88.4571 27.4079 88.6724C27.0259 88.8855 26.6001 88.9834 26.1303 88.9659C25.6617 88.9464 25.1796 88.8025 24.6841 88.5342C24.1845 88.2636 23.7974 87.9369 23.5228 87.554C23.2494 87.169 23.0976 86.7583 23.0673 86.322C23.0382 85.8835 23.1409 85.4478 23.3754 85.0148C23.6098 84.5818 23.918 84.2587 24.3 84.0455C24.6831 83.8303 25.11 83.733 25.5807 83.7537C26.0525 83.7722 26.5383 83.9168 27.0379 84.1874C27.5334 84.4556 27.9168 84.7817 28.1882 85.1656C28.4607 85.5474 28.6115 85.9575 28.6406 86.3959C28.6708 86.8323 28.5687 87.267 28.3342 87.7ZM27.6722 87.3415C27.8503 87.0126 27.9126 86.6963 27.8589 86.3926C27.8053 86.089 27.6687 85.8117 27.4491 85.5609C27.2295 85.3101 26.9595 85.0979 26.6389 84.9243C26.3183 84.7507 25.9919 84.64 25.6598 84.592C25.3277 84.5441 25.0188 84.5801 24.7331 84.7C24.4474 84.8199 24.2155 85.0443 24.0374 85.3733C23.8593 85.7022 23.7981 86.019 23.8538 86.3238C23.9095 86.6286 24.0482 86.907 24.2698 87.1589C24.4915 87.4108 24.7626 87.6236 25.0832 87.7972C25.4038 87.9708 25.7291 88.081 26.0592 88.1278C26.3892 88.1746 26.696 88.1375 26.9796 88.0164C27.2632 87.8954 27.4941 87.6704 27.6722 87.3415Z" fill="black"/>
<path d="M35.8248 66.0375L35.3002 66.7449C35.0657 66.6358 34.8326 66.5765 34.6011 66.5669C34.3709 66.5553 34.1485 66.585 33.9339 66.6557C33.7188 66.7232 33.5184 66.8266 33.3326 66.9658C33.1468 67.1051 32.982 67.2717 32.8382 67.4657C32.5759 67.8194 32.4277 68.2061 32.3935 68.6258C32.3607 69.0436 32.4556 69.4662 32.6781 69.8935C32.902 70.3188 33.2669 70.7191 33.7727 71.0942C34.2786 71.4693 34.7675 71.7022 35.2396 71.7929C35.7131 71.8817 36.145 71.8497 36.5353 71.697C36.927 71.5424 37.2539 71.2883 37.5162 70.9346C37.6601 70.7406 37.7716 70.5345 37.8509 70.3163C37.9302 70.098 37.9719 69.8769 37.9759 69.6529C37.9794 69.4257 37.9422 69.2035 37.8643 68.9866C37.7859 68.7664 37.6614 68.5607 37.4909 68.3693L38.0155 67.6619C38.2745 67.9366 38.4698 68.2317 38.6012 68.5473C38.7327 68.8628 38.8036 69.1865 38.8139 69.5184C38.8224 69.8489 38.7728 70.1761 38.6652 70.5001C38.5589 70.8221 38.3966 71.1306 38.178 71.4253C37.8085 71.9235 37.3583 72.2764 36.8272 72.4838C36.2961 72.6913 35.7237 72.7398 35.1099 72.6295C34.4962 72.5192 33.8812 72.2357 33.2651 71.7788C32.6489 71.3219 32.199 70.8158 31.9152 70.2605C31.6314 69.7053 31.5116 69.1434 31.5558 68.575C31.6001 68.0065 31.8069 67.4732 32.1764 66.975C32.395 66.6802 32.6429 66.4353 32.9203 66.2401C33.199 66.043 33.4987 65.9012 33.8192 65.8147C34.1379 65.7268 34.4673 65.6999 34.8075 65.7341C35.1457 65.7668 35.4848 65.8679 35.8248 66.0375Z" fill="black"/>
<path d="M46.7021 60.582C46.3716 60.947 45.9948 61.1887 45.5716 61.307C45.15 61.4235 44.7131 61.4176 44.2609 61.2893C43.8102 61.1592 43.376 60.9051 42.9583 60.5269C42.5371 60.1457 42.2385 59.7365 42.0625 59.2994C41.8881 58.8605 41.838 58.4256 41.9121 57.9945C41.9877 57.5616 42.1908 57.1627 42.5213 56.7976C42.8517 56.4325 43.2277 56.1917 43.6493 56.0752C44.0725 55.9569 44.5103 55.9636 44.9627 56.0953C45.4167 56.2252 45.8543 56.4809 46.2756 56.8621C46.6933 57.2403 46.9885 57.6479 47.1611 58.0852C47.3353 58.5207 47.3846 58.9549 47.3089 59.3877C47.2348 59.8188 47.0325 60.2169 46.7021 60.582ZM46.1439 60.0767C46.395 59.7994 46.5304 59.5069 46.5503 59.1992C46.5702 58.8915 46.5032 58.5898 46.3494 58.294C46.1955 57.9983 45.9835 57.7281 45.7132 57.4835C45.4429 57.2388 45.1521 57.0538 44.8408 56.9285C44.5295 56.8032 44.2209 56.765 43.9149 56.8137C43.6089 56.8625 43.3304 57.0255 43.0794 57.3028C42.8284 57.5801 42.6938 57.8734 42.6757 58.1827C42.6576 58.4921 42.7263 58.7954 42.8819 59.0927C43.0375 59.39 43.2504 59.661 43.5207 59.9056C43.791 60.1503 44.0809 60.3345 44.3905 60.4582C44.7 60.5819 45.0069 60.6186 45.3111 60.5682C45.6153 60.5179 45.8929 60.3541 46.1439 60.0767Z" fill="black"/>
<path d="M54.9527 51.8703C54.6188 52.1788 54.2462 52.3668 53.8348 52.4344C53.4217 52.5002 53 52.4451 52.5697 52.269C52.1378 52.0911 51.7258 51.7901 51.3337 51.3658C50.9449 50.9451 50.6796 50.5133 50.5379 50.0705C50.3962 49.6276 50.3761 49.203 50.4775 48.7965C50.579 48.3901 50.7984 48.031 51.1357 47.7192C51.3964 47.4782 51.6426 47.3313 51.8742 47.2784C52.106 47.2222 52.3125 47.2119 52.4937 47.2475C52.675 47.2798 52.8204 47.3098 52.9299 47.3376L52.982 47.2894L51.1599 45.3178L51.7754 44.749L56.7115 50.09L56.1169 50.6396L55.5481 50.0241L55.4751 50.0916C55.4974 50.2064 55.5182 50.358 55.5376 50.5464C55.5554 50.7331 55.527 50.9414 55.4526 51.1713C55.3766 51.3995 55.21 51.6325 54.9527 51.8703ZM54.5251 51.2403C54.772 51.0121 54.9212 50.755 54.9727 50.4688C55.0226 50.181 54.9858 49.8813 54.8624 49.5699C54.7373 49.2567 54.535 48.9488 54.2554 48.6463C53.9791 48.3473 53.6938 48.1258 53.3996 47.9818C53.1037 47.8362 52.8128 47.7795 52.5267 47.8117C52.239 47.8423 51.97 47.9733 51.7196 48.2046C51.4588 48.4457 51.3034 48.7135 51.2532 49.008C51.2032 49.2992 51.24 49.5989 51.3636 49.907C51.4873 50.2117 51.6793 50.5049 51.9396 50.7866C52.2031 51.0717 52.486 51.2906 52.7882 51.4433C53.0906 51.5925 53.3913 51.6563 53.6904 51.6346C53.9896 51.6095 54.2678 51.4781 54.5251 51.2403Z" fill="black"/>
<path d="M64.4063 43.5439C63.9904 43.8653 63.5608 44.0507 63.1173 44.1003C62.6743 44.1465 62.2432 44.0668 61.8239 43.8612C61.4051 43.6523 61.0249 43.3268 60.6832 42.8847C60.3416 42.4427 60.121 41.9908 60.0215 41.5291C59.9224 41.0641 59.9449 40.6248 60.089 40.2112C60.2336 39.7943 60.5006 39.4353 60.8902 39.1342C61.115 38.9604 61.3659 38.8263 61.643 38.7319C61.9201 38.6374 62.2137 38.605 62.5238 38.6346C62.8325 38.6623 63.1466 38.7726 63.4662 38.9654C63.7858 39.1582 64.1012 39.456 64.4125 39.8587L64.6296 40.1397L61.3029 42.7109L60.8599 42.1378L63.5123 40.0877C63.3241 39.8442 63.1074 39.6646 62.8624 39.5488C62.6192 39.4316 62.3659 39.3865 62.1025 39.4135C61.841 39.4391 61.5904 39.5445 61.3506 39.7298C61.0865 39.934 60.9087 40.1762 60.8171 40.4564C60.7259 40.7333 60.7092 41.0155 60.7668 41.3031C60.8245 41.5906 60.9453 41.8534 61.1292 42.0912L61.4245 42.4734C61.6764 42.7993 61.9462 43.0321 62.2337 43.1719C62.5217 43.3084 62.8125 43.3575 63.106 43.3191C63.398 43.2789 63.678 43.1553 63.9459 42.9482C64.1201 42.8136 64.2586 42.6676 64.3614 42.5103C64.4647 42.3497 64.5295 42.18 64.5558 42.0011C64.5806 41.8203 64.5632 41.6333 64.5036 41.44L65.2832 41.1247C65.3837 41.3941 65.4181 41.6727 65.3862 41.9606C65.353 42.2466 65.2547 42.526 65.0915 42.7988C64.9269 43.0697 64.6985 43.318 64.4063 43.5439Z" fill="black"/>
<path d="M78.9242 27.4156C78.7382 27.2462 78.5429 27.1108 78.3382 27.0092C78.1344 26.9044 77.923 26.8366 77.7041 26.8057C77.4871 26.7737 77.2654 26.7812 77.0389 26.8281C76.8124 26.8751 76.5848 26.9634 76.3563 27.0932C75.9816 27.3059 75.6959 27.5961 75.499 27.9638C75.3021 28.3315 75.2201 28.7552 75.2528 29.2348C75.2856 29.7144 75.4574 30.228 75.7683 30.7756C76.0793 31.3232 76.4333 31.7334 76.8304 32.0061C77.2276 32.2788 77.6376 32.4231 78.0604 32.4389C78.4832 32.4548 78.8901 32.3517 79.2813 32.1296C79.6436 31.9238 79.9189 31.6654 80.1071 31.3544C80.2962 31.0401 80.3873 30.6971 80.3804 30.3253C80.3743 29.9503 80.2615 29.5693 80.0417 29.1823L80.3045 29.0984L78.4022 30.1785L78.0165 29.4991L80.4251 28.1315L80.8109 28.8109C81.1066 29.3317 81.2526 29.8478 81.2489 30.359C81.2472 30.8691 81.112 31.3406 80.8433 31.7735C80.5755 32.2033 80.1904 32.5608 79.6881 32.846C79.1281 33.1639 78.5613 33.3116 77.9876 33.2888C77.4159 33.265 76.8738 33.0773 76.3611 32.7259C75.8506 32.3733 75.4059 31.8635 75.0272 31.1964C74.7431 30.6962 74.5546 30.2083 74.4617 29.733C74.3696 29.2544 74.367 28.8039 74.4539 28.3816C74.5408 27.9593 74.7104 27.5771 74.9627 27.2351C75.215 26.8932 75.544 26.607 75.9495 26.3767C76.2831 26.1874 76.6226 26.0613 76.9681 25.9985C77.3144 25.9325 77.6529 25.9269 77.9834 25.9815C78.3148 26.0329 78.6285 26.142 78.9246 26.3087C79.2196 26.4734 79.483 26.6927 79.7148 26.9667L78.9242 27.4156Z" fill="black"/>
<path d="M89.9703 27.1773L87.6369 22.247L88.3944 21.8885L90.7278 26.8187L89.9703 27.1773ZM87.6332 21.243C87.4855 21.3129 87.3344 21.3229 87.1798 21.2729C87.0273 21.222 86.9177 21.1259 86.8509 20.9847C86.784 20.8435 86.7792 20.6977 86.8365 20.5475C86.8959 20.3963 86.9994 20.2858 87.147 20.2159C87.2947 20.146 87.4447 20.1365 87.5972 20.1875C87.7518 20.2374 87.8625 20.333 87.9293 20.4742C87.9962 20.6155 87.9999 20.7617 87.9405 20.9129C87.8833 21.0631 87.7808 21.1731 87.6332 21.243Z" fill="black"/>
<path d="M94.8801 18.9694L95.1548 19.6243L92.5481 20.7177L92.2734 20.0628L94.8801 18.9694ZM92.5276 18.539L93.3005 18.2148L95.3114 23.009C95.403 23.2273 95.5033 23.3778 95.6124 23.4604C95.7228 23.5399 95.836 23.5772 95.952 23.5721C96.0692 23.564 96.1846 23.5362 96.2981 23.4886C96.3833 23.4528 96.4513 23.4192 96.5022 23.3875C96.5522 23.3537 96.5922 23.3267 96.6222 23.3064L97.0706 23.9347C97.0265 23.9763 96.9616 24.0267 96.8759 24.0857C96.7912 24.1469 96.6768 24.2077 96.5327 24.2682C96.3144 24.3597 96.0808 24.4025 95.8318 24.3966C95.585 24.3897 95.3526 24.319 95.1345 24.1846C94.9185 24.0493 94.7492 23.8353 94.6265 23.5428L92.5276 18.539Z" fill="black"/>
<path d="M107.031 20.0795L105.07 13.076L105.918 12.8386L106.791 15.9573L110.525 14.9118L109.652 11.7931L110.5 11.5557L112.461 18.5591L111.613 18.7966L110.736 15.6642L107.002 16.7096L107.879 19.842L107.031 20.0795Z" fill="black"/>
<path d="M124.31 13.4712L123.753 10.2954L124.578 10.1504L125.521 15.5228L124.696 15.6677L124.536 14.7583L124.48 14.7682C124.402 15.0631 124.247 15.3295 124.015 15.5674C123.782 15.8029 123.463 15.9563 123.057 16.0275C122.722 16.0865 122.41 16.0655 122.123 15.9644C121.836 15.8611 121.591 15.6732 121.39 15.401C121.188 15.1264 121.046 14.7606 120.966 14.3036L120.367 10.8899L121.192 10.7449L121.782 14.1026C121.851 14.4944 122.015 14.7876 122.275 14.9823C122.538 15.1766 122.84 15.2436 123.183 15.1834C123.388 15.1474 123.588 15.0583 123.782 14.9161C123.978 14.7735 124.129 14.5811 124.235 14.3388C124.344 14.0962 124.369 13.807 124.31 13.4712Z" fill="black"/>
<path d="M133.221 14.2629L132.602 7.01662L133.437 6.94531L133.666 9.62023L133.737 9.61419C133.79 9.51459 133.865 9.38704 133.961 9.23153C134.059 9.07345 134.206 8.92786 134.401 8.79475C134.598 8.65908 134.874 8.57614 135.228 8.54592C135.686 8.50684 136.099 8.5868 136.467 8.78579C136.836 8.98479 137.136 9.28586 137.368 9.68902C137.599 10.0921 137.74 10.5791 137.788 11.15C137.837 11.7255 137.782 12.2328 137.622 12.6717C137.463 13.1083 137.219 13.457 136.892 13.7178C136.565 13.9762 136.175 14.1248 135.722 14.1634C135.373 14.1933 135.088 14.1593 134.869 14.0617C134.649 13.9617 134.476 13.8422 134.35 13.7033C134.224 13.562 134.126 13.4444 134.056 13.3506L133.957 13.359L134.028 14.1941L133.221 14.2629ZM133.81 11.4755C133.845 11.8859 133.936 12.2428 134.083 12.5463C134.23 12.8474 134.427 13.0765 134.673 13.2337C134.919 13.3885 135.21 13.4516 135.545 13.423C135.894 13.3932 136.177 13.2763 136.395 13.0724C136.615 12.8659 136.771 12.6008 136.862 12.277C136.955 11.9506 136.985 11.594 136.952 11.2071C136.919 10.825 136.831 10.4857 136.687 10.1891C136.545 9.88996 136.348 9.66083 136.097 9.5017C135.848 9.34001 135.547 9.27428 135.193 9.3045C134.853 9.3335 134.575 9.44398 134.359 9.63591C134.142 9.82549 133.988 10.0786 133.896 10.3953C133.804 10.7097 133.775 11.0697 133.81 11.4755Z" fill="black"/>
</svg>
