<svg width="24" height="21" viewBox="0 0 24 21" fill="none" xmlns="http://www.w3.org/2000/svg">
<path d="M14.7697 19.0121C17.3845 17.0335 21.1579 13.9358 22.7304 11.4584C23.9069 9.60756 24.2898 7.31453 23.778 5.18249C22.6846 0.325919 16.6298 -1.65859 12.8582 1.59599C12.6461 1.77782 12.4506 1.9794 12.2499 2.18639C12.168 2.27086 12.0852 2.35623 12 2.44152C11.9148 2.35623 11.832 2.27085 11.7501 2.18638C11.5494 1.9794 11.3539 1.77782 11.1418 1.59599C7.37024 -1.65859 1.31542 0.325919 0.221998 5.18249C-0.289767 7.31453 0.0930208 9.60756 1.26966 11.4584C2.8421 13.9358 6.61553 17.0335 9.23035 19.0121C9.95894 19.5636 12 21 12 21C12 21 14.0411 19.5636 14.7697 19.0121Z" fill="white"/>
</svg>
