<svg width="100" height="100" viewBox="0 0 100 100" fill="none" xmlns="http://www.w3.org/2000/svg">
<rect width="100" height="100" fill="white"/>
<g clip-path="url(#clip0_349_18)">
<path d="M34.9405 44.5972V53.6714H28.3346C28.2742 53.6714 28.2143 53.6596 28.1585 53.6365C28.1027 53.6134 28.052 53.5796 28.0093 53.5368C27.9666 53.4941 27.9327 53.4434 27.9096 53.3876C27.8865 53.3318 27.8747 53.272 27.8748 53.2116V50.9855H25.1648V54.9778C25.1647 55.159 25.2003 55.3384 25.2696 55.5058C25.3389 55.6732 25.4405 55.8253 25.5686 55.9534C25.6967 56.0815 25.8488 56.1831 26.0162 56.2524C26.1836 56.3217 26.363 56.3573 26.5442 56.3572H37.651V44.5972H34.9405Z" fill="#BED600"/>
<path d="M43.8452 44.5972H41.1353V56.3572H43.8452V44.5972Z" fill="#BED600"/>
<path d="M58.4369 44.5972H47.3542V56.3572H50.0642V47.283H56.6701C56.7305 47.283 56.7903 47.2948 56.8462 47.3179C56.902 47.341 56.9527 47.3748 56.9954 47.4175C57.0381 47.4602 57.072 47.511 57.0951 47.5668C57.1181 47.6226 57.13 47.6824 57.1299 47.7428V56.3572H59.8399V45.9765C59.834 45.6087 59.6837 45.2578 59.4215 44.9998C59.1592 44.7417 58.806 44.5971 58.4381 44.5972" fill="#BED600"/>
<path d="M14.59 49.9688L14.2031 49.6783L13.0418 48.8798V48.7828V48.4464C13.047 47.8454 12.9906 47.2455 12.8736 46.656C12.8736 46.6078 12.8495 46.5349 12.8495 46.4878C12.8254 46.4396 12.8254 46.3667 12.8013 46.2943C12.8762 46.2303 12.9573 46.1739 13.0435 46.1261C14.5593 44.9969 16.2301 44.0923 18.0042 43.4403C18.0524 43.4161 18.1253 43.392 18.1724 43.3679C18.1966 43.3679 18.2207 43.3438 18.2448 43.3438C18.8307 43.146 19.4419 43.0327 20.0598 43.0074H20.1322C20.4629 43.0044 20.7837 43.1198 21.0367 43.3328C21.2897 43.5458 21.4581 43.8423 21.5115 44.1686C21.5079 44.2028 21.5164 44.2372 21.5357 44.2656C21.6041 44.7709 21.6365 45.2804 21.6327 45.7903C21.6325 46.7598 21.5196 47.7261 21.2962 48.6696V48.7178C21.049 49.7182 20.4471 50.5949 19.6023 51.185C18.9591 51.6378 18.2079 51.9132 17.4244 51.9834L14.59 49.9688Z" fill="#BED600"/>
<path d="M13.574 54.1793L12.6303 53.5502L12.6062 53.5261L12.6303 53.3327L12.7755 52.2437L12.7997 52.1467L13.0172 50.6709L13.5252 50.8885L14.5906 51.3241L15.0263 51.4924L17.2524 52.4119C17.6473 52.7732 17.9541 53.2201 18.1495 53.7184C18.1521 53.7367 18.1605 53.7536 18.1736 53.7667C18.1736 53.7908 18.1736 53.7908 18.1977 53.8149C18.2218 53.8631 18.2218 53.9119 18.246 53.9601C18.2706 54.0221 18.2868 54.0872 18.2942 54.1536C18.3505 54.4161 18.3587 54.6866 18.3183 54.952C18.2945 55.1989 18.2207 55.4383 18.1013 55.6557C17.8503 56.1854 17.4129 56.604 16.8728 56.8315C16.3326 57.0591 15.7275 57.0797 15.1732 56.8893H15.1491C15.125 56.8893 15.1009 56.8652 15.0767 56.8652C15.0736 56.8653 15.0704 56.8647 15.0674 56.8635C15.0645 56.8623 15.0618 56.8606 15.0595 56.8583C15.0573 56.8561 15.0555 56.8534 15.0543 56.8504C15.0531 56.8475 15.0526 56.8443 15.0526 56.8411C14.9315 56.7929 14.8104 56.7441 14.7162 56.6959C13.8511 56.2386 13.1932 55.4682 12.877 54.5421L13.5785 54.6632L13.8448 54.7115V54.3487L13.574 54.1793Z" fill="#BED600"/>
<path d="M82.0296 44.5972H79.3196V56.3572H82.0296V44.5972Z" fill="#BED600"/>
<path d="M64.7043 44.5972C64.5232 44.5971 64.3438 44.6327 64.1764 44.702C64.009 44.7713 63.8569 44.8729 63.7288 45.001C63.6007 45.1291 63.4991 45.2812 63.4298 45.4486C63.3605 45.616 63.3249 45.7954 63.325 45.9765V56.3572H66.0349V52.6794H73.1247V56.3572H75.8347V44.5972H64.7043ZM66.0355 47.7428C66.0354 47.6824 66.0473 47.6226 66.0703 47.5668C66.0934 47.511 66.1273 47.4602 66.17 47.4175C66.2127 47.3748 66.2634 47.341 66.3192 47.3179C66.375 47.2948 66.4349 47.283 66.4953 47.283H73.1012V49.993H66.0108V47.7428H66.0355Z" fill="#BED600"/>
<path d="M96.6212 44.5972H85.5144V56.3572H88.2003V47.283H94.8303C94.8907 47.283 94.9505 47.2948 95.0063 47.3179C95.0621 47.341 95.1128 47.3748 95.1556 47.4175C95.1983 47.4602 95.2321 47.511 95.2552 47.5668C95.2783 47.6226 95.2901 47.6824 95.2901 47.7428V49.9689H98V45.9765C97.9961 45.6119 97.8495 45.2634 97.5917 45.0055C97.3338 44.7477 96.9853 44.6011 96.6207 44.5972" fill="#BED600"/>
<path d="M10.0415 49.9688L10.4284 49.6783L11.5897 48.8798V48.7828V48.4464C11.5845 47.8454 11.6409 47.2455 11.7579 46.656C11.7579 46.6078 11.782 46.5349 11.782 46.4878C11.8061 46.4396 11.8061 46.3667 11.8302 46.2943C11.7553 46.2303 11.6742 46.1739 11.588 46.1261C10.0722 44.9969 8.40142 44.0923 6.62728 43.4403C6.57906 43.4161 6.50617 43.392 6.45907 43.3679C6.43496 43.3679 6.41085 43.3438 6.38673 43.3438C5.80076 43.146 5.1896 43.0327 4.57167 43.0074H4.49934C4.16864 43.0044 3.84779 43.1198 3.59479 43.3328C3.3418 43.5458 3.17337 43.8423 3.11996 44.1686C3.12365 44.2028 3.11511 44.2372 3.09585 44.2656C3.0274 44.7709 2.99498 45.2804 2.99884 45.7903C2.999 46.7598 3.11191 47.7261 3.33528 48.6696V48.7178C3.58247 49.7182 4.1844 50.5949 5.02922 51.185C5.67241 51.6378 6.42358 51.9132 7.20707 51.9834L10.0415 49.9688Z" fill="#BED600"/>
<path d="M11.0335 54.1793L11.9772 53.5502L12.0013 53.5261L11.9772 53.3327L11.832 52.2437L11.8079 52.1467L11.5886 50.6709L11.0806 50.8885L10.0152 51.3241L9.57954 51.4924L7.4017 52.4119C7.0068 52.7732 6.6999 53.2201 6.50454 53.7184C6.50197 53.7367 6.4935 53.7536 6.48043 53.7667C6.48043 53.7908 6.48043 53.7908 6.45632 53.8149C6.4322 53.8631 6.43221 53.9119 6.40809 53.9601C6.38346 54.0221 6.36724 54.0872 6.35987 54.1536C6.30356 54.4161 6.29539 54.6866 6.33576 54.952C6.36 55.1982 6.43402 55.4368 6.55332 55.6535C6.80434 56.1831 7.24171 56.6017 7.78186 56.8293C8.32201 57.0569 8.92706 57.0774 9.48142 56.8871H9.50553C9.52964 56.8871 9.55375 56.863 9.57786 56.863C9.58105 56.863 9.58422 56.8625 9.58718 56.8613C9.59014 56.8601 9.59283 56.8583 9.59508 56.8561C9.59734 56.8538 9.59911 56.8511 9.6003 56.8482C9.60148 56.8452 9.60205 56.842 9.60197 56.8389C9.72309 56.7906 9.84421 56.7419 9.93841 56.6936C10.8035 56.2363 11.4614 55.466 11.7776 54.5399L11.084 54.6632L10.8176 54.7115V54.3487L11.0335 54.1793Z" fill="#BED600"/>
</g>
<defs>
<clipPath id="clip0_349_18">
<rect width="95" height="14.0181" fill="white" transform="translate(3 43)"/>
</clipPath>
</defs>
</svg>
